<?xml version="1.0" standalone="yes"?>
<svg xmlns="http://www.w3.org/2000/svg" width="583" height="712">
<path style="fill:#fdfdfd; stroke:none;" d="M0 0L0 712L583 712L583 0L0 0z"/>
<path style="fill:#292425; stroke:none;" d="M288 11L285 22C266.269 15.8827 243.952 17.8411 237 40L215 28L217 37C200.122 37.9197 200.35 48.8618 190.409 58.3455C187.327 61.2851 176.081 67.4357 172 68.1245C168.71 68.6797 165.431 66.6636 162 67L168 78C149.913 79.8363 130.118 102.714 152.011 115.911C158.653 119.915 165.122 116.818 172 115.964C183.895 114.488 192.245 115.871 204 111C208.6 119.419 217.857 127.862 227 131L227 132C195.477 132 166.278 130.485 135 135C137.722 142.117 148.608 141.165 155 142.7C163.799 144.813 171.936 148.299 181 149.557C191.662 151.038 201.643 150.066 212 153.568C216.951 155.242 233.543 156.255 233.569 163.003C233.603 171.842 214.15 163.48 209 163.115C199.461 162.439 191.246 165.85 182 166.732C175.431 167.359 168.685 163.416 162 163.142C145.806 162.479 128.956 176.145 138.589 192.997C145.815 205.638 156.257 201.977 167.695 200.428C172.377 199.794 177.192 202.901 182 202.877C187.206 202.852 191.831 199.706 197 199.942C224.794 201.212 252.276 202.741 280 202.603C284.49 202.581 288.588 200.181 293 200.168C299.635 200.147 306.181 202.976 313 202.999C333.409 203.069 352.674 198.869 373 202.369C379.769 203.534 385.059 200.534 391.568 200.206C404.465 199.557 431.283 209.273 438.019 191.997C442.675 180.056 429.876 169.636 420 166.378C404.371 161.222 392.829 168.662 378 168.202C365.741 167.821 355.923 162.654 343 165C343.654 152.302 359.812 154.543 369 153.432C389.988 150.896 407.593 146.281 428 140.891C435.036 139.033 446.298 138.8 449 131C429.037 125.449 410.23 127.971 390 128.941C375.242 129.648 360.668 127.72 346 129C351.964 122.707 357.945 113.25 367 111.242C371.291 110.291 375.721 112.472 380 112.773C385.868 113.186 391.25 110.201 397 110.296C412.365 110.55 431.86 119.842 437.067 97C439.008 88.483 434.549 79.6457 426.999 75.48C423.365 73.4749 417.761 73.3706 415.971 69.0143C414.653 65.8047 417.205 62.093 418 59C408.659 61.2494 402.283 55.5262 393 55.0603C389.178 54.8685 382.845 56.7988 379.49 54.7909C376.534 53.0223 375.29 48.5907 372.847 46.1531C367.352 40.6715 360.247 40.5743 353 41L355 32L343 40C334.431 19.36 310.566 16.134 292 23L288 11z"/>
<path style="fill:#df232b; stroke:none;" d="M289 11L290 12L289 11M286 14L287 15L286 14M262 18L263 19L262 18M277 19L278 20L277 19M291 19L292 20L291 19M304 19L305 20L304 19M280 20L281 21L280 20M285 20L286 21L285 20M249 23L250 24L249 23M265 24L265 25L272 25L265 24M261 25L262 26L261 25z"/>
<path style="fill:#fdfdfd; stroke:none;" d="M262 25.561C255.581 26.9493 250.011 30.6509 246.255 36.0112C244.289 38.8151 242.925 44.0858 239.658 45.6267C236.38 47.1735 231.284 44.6243 228 43.9019C221.826 42.5438 214.725 42.4693 209.001 45.5125C200.535 50.0133 201.738 58.9254 195.598 64.1826C192.165 67.1221 186.882 66.9103 183.063 69.2943C177.825 72.5638 177.726 78.6154 173.49 82.2931C169.54 85.7237 162.62 84.9204 158.003 87.48C148.001 93.0259 145.922 108.564 159.001 111.947C164.074 113.26 168.103 110.145 173 109.939C183.832 109.482 195.175 113.277 203.145 102.874C206.372 98.6625 205.288 86.5125 209.412 84.4819C213.057 82.6874 219.706 84.9368 224 83.9685C230.199 82.5709 233.393 77.4781 239 75.4811C244.108 73.6619 250.389 76.14 256 74.3922C262.394 72.4006 268.733 63.9626 275 63.6257C282.287 63.2339 289.717 70.9789 298 70.9789C305.002 70.9789 311.518 65.3156 317.902 65.5999C322.668 65.8122 326.963 78.1699 332.011 80.8925C338.987 84.6554 347.208 81.5034 353.714 84.59C359.53 87.35 362.114 98.0964 368.001 102.297C379.059 110.189 386.681 103.304 398 104.122C406.446 104.732 413.026 110.171 421.997 107.079C432 103.632 435.519 89.7255 426.847 82.8548C422.918 79.7423 417.031 80.0961 413.572 76.5911C409.081 72.0413 408.476 66.4742 401.997 63.5854C394.139 60.0823 382.568 65.5635 376.349 61.9182C370.981 58.7712 371.724 50.9486 364.989 48.2159C358.224 45.471 349.192 51.0256 343.43 47.7908C332.952 41.9086 330.878 29.4842 317 26.5583C306.584 24.3623 298.232 31.5817 289 30.6346C279.129 29.6221 272.954 23.1916 262 25.561z"/>
<path style="fill:#df232b; stroke:none;" d="M276 25L277 26L276 25M258 26L259 27L258 26M302 26L303 27L302 26M331 26L332 27L331 26M218 28L219 29L218 28M254 28L255 29L254 28M296 28L297 29L296 28z"/>
<path style="fill:#292425; stroke:none;" d="M251 47L252 47C263.183 36.1597 269.179 37.7928 283 41C285.271 22.7328 243.56 30.3535 251 47z"/>
<path style="fill:#df232b; stroke:none;" d="M272 30L273 31L272 30M292 30L293 31L292 30M262 31L263 32L262 31M276 31L277 32L276 31M288 31L289 32L288 31M290 31L291 32L290 31M329 32L330 33L329 32M352 32L353 33L352 32M302 33L303 34L302 33z"/>
<path style="fill:#292425; stroke:none;" d="M292 46C307.78 38.6226 321.232 34.9869 332 53C338.437 48.9237 332.411 42.2208 327.94 38.8347C319.78 32.6549 288.002 27.9798 292 46z"/>
<path style="fill:#df232b; stroke:none;" d="M317 33L318 34L317 33M216 34L217 35L216 34M247 34L248 35L247 34M320 34L321 35L320 34M297 35L298 36L297 35M322 35L323 36L322 35M324 36L325 37L324 36M341 36L342 37L341 36M211 37L212 38L211 37M232 38L233 39L232 38M262 38L263 39L262 38M353 38L354 39L353 38M236 39L237 40L236 39M260 39L261 40L260 39M283 39L284 40L283 39M303 39L304 40L303 39M355 40L355 41L358 41L355 40M359.667 40.3333L360.333 40.6667L359.667 40.3333M257 41L258 42L257 41M365 41L366 42L365 41M214 43L215 44L214 43M226 43L227 44L226 43M324 43L325 44L324 43M332 43L333 44L332 43M230 44L231 45L230 44M241 45L242 46L241 45M240 46L241 47L240 46M196 47L197 48L196 47M352 47L353 48L352 47M218 48L219 49L218 48z"/>
<path style="fill:#292425; stroke:none;" d="M207 68C210.752 55.7318 219.287 52.5468 231 55L232 49C223.678 48.274 215.881 47.1848 209.071 53.2703C205.07 56.8452 198.629 66.2125 207 68z"/>
<path style="fill:#df232b; stroke:none;" d="M227 48L228 49L227 48M329 48L330 49L329 48M331 51L332 52L331 51z"/>
<path style="fill:#292425; stroke:none;" d="M347 58C357.996 57.4258 359.692 61.7012 369 65C368.6 54.1918 349.752 44.9415 347 58z"/>
<path style="fill:#df232b; stroke:none;" d="M220 53L221 54L220 53M224 53L225 54L224 53M377 53L378 54L377 53M228 54L229 55L228 54M192 55L193 56L192 55M397 55L398 56L397 55M213 56L214 57L213 56M401 56L402 57L401 56M352 57L353 58L352 57M211 58L212 59L211 58M348 58L349 59L348 58M373 58L374 59L373 58M210 59L211 60L210 59M362 59L363 60L362 59M415 59L416 60L415 59M385.667 61.3333L386.333 61.6667L385.667 61.3333M394 61L395 62L394 61M411 61L412 62L411 61M369 62L370 63L369 62M272 63L273 64L272 63M376.667 63.3333L377.333 63.6667L376.667 63.3333M317 64L318 65L317 64M280 65L281 66L280 65M405 65L406 66L405 65M165 66L166 67L165 66M190 66L191 67L190 66M384 67L385 68L384 67z"/>
<path style="fill:#292425; stroke:none;" d="M379 75C390.447 72.3226 396.608 74.4762 404 84C416.456 70.3211 376.708 58.545 379 75z"/>
<path style="fill:#df232b; stroke:none;" d="M393 67L394 68L393 67M162 68L163 69L162 68M204.667 68.3333L205.333 68.6667L204.667 68.3333M182 69L183 70L182 69M265 69L266 70L265 69M288 69L289 70L288 69M307 69L308 70L307 69z"/>
<path style="fill:#fdfdfd; stroke:none;" d="M256 81L275 104L276 70L256 81z"/>
<path style="fill:#df232b; stroke:none;" d="M276 70L277 71L276 70M291 70L292 71L291 70M304 70L305 71L304 70M189 71L190 72L189 71z"/>
<path style="fill:#292425; stroke:none;" d="M184 85L197 71C191.995 71.0419 187.073 71.4847 183.394 75.3403C180.19 78.6982 179.058 83.3544 184 85z"/>
<path style="fill:#df232b; stroke:none;" d="M262 71L263 72L262 71M410 71L411 72L410 71M164 72L165 73L164 72M178 73L179 74L178 73M185 73L186 74L185 73M258 73L259 74L258 73z"/>
<path style="fill:#fdfdfd; stroke:none;" d="M297 77L300 102L301 102L317 73L297 77z"/>
<path style="fill:#df232b; stroke:none;" d="M384 73L385 74L384 73M269 74L270 75L269 74M317 74L318 75L317 74M404 74L405 75L404 74M195 75L196 76L195 75M251 75L252 76L251 75z"/>
<path style="fill:#fdfdfd; stroke:none;" d="M284 75C281.915 84.9251 279.077 96.2571 283 106L294 106C294.416 95.2432 296.031 79.446 284 75z"/>
<path style="fill:#df232b; stroke:none;" d="M191 76L192 77L191 76M305 76L306 77L305 76M181 77L182 78L181 77M276 77L277 78L276 77M283 77L284 78L283 77M290 77L291 78L290 77M234 78L235 79L234 78M328 78L329 79L328 78M414 78L415 79L414 78M160 79L161 80L160 79M175 80L176 81L175 80M155 81L156 82L155 81M185 81L186 82L185 81M402 81L403 82L402 81M153 82L154 83L153 82M312 82L313 83L312 82z"/>
<path style="fill:#fdfdfd; stroke:none;" d="M306 108C322.726 117.618 324.059 99.1678 328 86C315.874 78.6909 308.135 98.1339 306 108z"/>
<path style="fill:#df232b; stroke:none;" d="M426 82L427 83L426 82M173 83L174 84L173 83M184 83L185 84L184 83M208 83L209 84L208 83M210 83L211 84L210 83z"/>
<path style="fill:#fdfdfd; stroke:none;" d="M244 83C246.407 89.4899 251.319 110.054 258.235 112.511C261.57 113.697 266.171 110.486 269 109C265.604 99.0925 255.251 83.5703 244 83z"/>
<path style="fill:#df232b; stroke:none;" d="M250 83L251 84L250 83M292 83L293 84L292 83M352.667 83.3333L353.333 83.6667L352.667 83.3333M167 84L168 85L167 84M221 84L222 85L221 84M275 84L276 85L275 84M298 84L299 85L298 84M413 84L414 85L413 84z"/>
<path style="fill:#292425; stroke:none;" d="M411 86L422 100C433.376 97.5869 421.912 81.3689 411 86z"/>
<path style="fill:#df232b; stroke:none;" d="M417 84L418 85L417 84z"/>
<path style="fill:#fdfdfd; stroke:none;" d="M213 91C214.289 103.319 241.006 110.221 251 115L238 85L213 91z"/>
<path style="fill:#df232b; stroke:none;" d="M259 85L260 86L259 85M326 85L327 86L326 85M238 86L239 87L238 86M245 86L246 87L245 86M422 86L423 87L422 86M436 86L437 87L436 86M308 87L309 88L308 87M166 88L167 89L166 88z"/>
<path style="fill:#292425; stroke:none;" d="M156 105C160.853 96.8018 165.28 93.062 175 93C172.498 81.2057 145.734 93.8924 156 105z"/>
<path style="fill:#df232b; stroke:none;" d="M230 88L231 89L230 88M239 88L240 89L239 88M246 88L247 89L246 88M293 88L294 89L293 88M327 88L328 89L327 88M411 88L412 89L411 88M281.333 89.6667L281.667 90.3333L281.333 89.6667M334 89L335 90L334 89M431 89L432 90L431 89M240 90L241 91L240 90M299 90L300 91L299 90M326 90L327 91L326 90z"/>
<path style="fill:#fdfdfd; stroke:none;" d="M325 113L353 97C351.034 91.1583 338.05 86.9031 333.061 91.7278C328.403 96.232 327.448 107.036 325 113z"/>
<path style="fill:#df232b; stroke:none;" d="M338 90L339 91L338 90M418 90L419 91L418 90M437 90L438 91L437 90M257 91L258 92L257 91M358 91L359 92L358 91M426 91L427 92L426 91M157 92L158 93L157 92M241 92L242 93L241 92M265 92L266 93L265 92M351 92L352 93L351 92M143 93L144 94L143 93M150 94L151 95L150 94M311 94L312 95L311 94M437 95L438 96L437 95M213 96L214 97L213 96M149 97L150 98L149 97M274.333 97.6667L274.667 98.3333L274.333 97.6667M294.333 97.6667L294.667 98.3333L294.333 97.6667M362 97L363 98L362 97M142 98L142 101L143 101L142 98M350 98L351 99L350 98M363 98L364 99L363 98M218 99L219 100L218 99M263 99L264 100L263 99M323 99L324 100L323 99M364 99L365 100L364 99M436 99L437 100L436 99M244 100L245 101L244 100M294 100L294 104L295 104L294 100M251 101L252 102L251 101M301 101L302 102L301 101M345 101L346 102L345 101M355 101L356 102L355 101z"/>
<path style="fill:#fdfdfd; stroke:none;" d="M327 119L334 130C342.613 127.477 357.576 112.782 362 105C351.447 98.7743 336.045 112.927 327 119z"/>
<path style="fill:#df232b; stroke:none;" d="M357 101L358 102L357 101M429 101L430 102L429 101M149 102L150 103L149 102M203 102L204 103L203 102z"/>
<path style="fill:#fdfdfd; stroke:none;" d="M211 102C203.425 116.23 230.71 129.198 242 132L250 121L211 102z"/>
<path style="fill:#df232b; stroke:none;" d="M281.333 102.667L281.667 103.333L281.333 102.667M226 103L227 104L226 103M328 103L329 104L328 103M216 104L217 105L216 104M274 104L275 105L274 104M340 104L341 105L340 104M360 104L361 105L360 104M371 104L372 105L371 104M282 105L283 106L282 105M285 105L285 106L293 106L285 105M306 105L307 106L306 105M233 106L234 107L233 106M376.667 106.333L377.333 106.667L376.667 106.333M387 106L388 107L387 106M432 106L433 107L432 106M327 107L328 108L327 107M361 107L362 108L361 107M408 107L409 108L408 107M421 107L422 108L421 107M238 108L239 109L238 108M306 108L307 109L306 108M430 108L431 109L430 108M145 109L146 110L145 109M173 109L174 110L173 109M226 109L227 110L226 109M397 109L398 110L397 109M255 110L256 111L255 110M319 110L320 111L319 110M356 110L357 111L356 110M203 111L204 112L203 111M263 111L264 112L263 111z"/>
<path style="fill:#fdfdfd; stroke:none;" d="M240 167L268 166.093L281 169.854L308 165.06L338 168C338 144.054 330.001 121.623 305 113.378C273.168 102.88 230.058 130.455 240 167z"/>
<path style="fill:#df232b; stroke:none;" d="M297 111L298 112L297 111M390 111L391 112L390 111M402 111L403 112L402 111M160 112L161 113L160 112M163 112L164 113L163 112M204 112L205 113L204 112M261 112L262 113L261 112M337 112L338 113L337 112M423 112L424 113L423 112M236 113L237 114L236 113M305 113L306 114L305 113M324.667 113.333L325.333 113.667L324.667 113.333M352 113L353 114L352 113M410 113L411 114L410 113M238 114L239 115L238 114M359 114L360 115L359 114M267 115L268 116L267 115M332 115L333 116L332 115M179 116L180 117L179 116M186 116L187 117L186 116M242 116L243 117L242 116M265 116L266 117L265 116M166 117L167 118L166 117M329 117L330 118L329 117M217 118L218 119L217 118M315 118L316 119L315 118M247 119L248 120L247 119M318 120L319 121L318 120M256 122L257 123L256 122M344 122L345 123L344 122M351 122L352 123L351 122M343 123L344 124L343 123M216 124L217 125L216 124M225 124L226 125L225 124M330 124L331 125L330 124M245 126L246 127L245 126M339 127L340 128L339 127M404.667 127.333L405.333 127.667L404.667 127.333M429 127L430 128L429 127M250 128L251 129L250 128M350 128L351 129L350 128M362 128L363 129L362 128M394 128L395 129L394 128M437 128L438 129L437 128M443 129L444 130L443 129M167 130L168 131L167 130M182 130L183 131L182 130M447 130L448 131L447 130M152 131L153 132L152 131M217 131L217 132L220 132L217 131M146 132L147 133L146 132M199 132L199 133L207 133L199 132M247 132L248 133L247 132M142 133L143 134L142 133M407 133L407 134L412 134L407 133z"/>
<path style="fill:#fdfdfd; stroke:none;" d="M340 138L343 151L398 144.397L432 135C421.132 130.157 405.473 133.748 394 134.804C375.673 136.49 358.088 133.732 340 138z"/>
<path style="fill:#df232b; stroke:none;" d="M427 133L427 134L430 134L427 133M138 134L139 135L138 134M357 134L357 135L361 135L357 134M396 134L397 135L396 134M448 134L449 135L448 134M245 135L246 136L245 135z"/>
<path style="fill:#292425; stroke:none;" d="M257 144L265 141C269.76 153.879 274.685 143.666 283 144C284.946 129.378 261.583 135.161 257 144z"/>
<path style="fill:#df232b; stroke:none;" d="M275 135L276 136L275 135M134 136L135 137L134 136M155 138L158 137L155 138z"/>
<path style="fill:#fdfdfd; stroke:none;" d="M156 137L156 138L181 143.695L207 145.919L234 153C234.785 148.808 236.782 143.165 232.757 140.078C225.927 134.841 215.748 137.569 208 137.941C190.79 138.766 173.082 133.147 156 137z"/>
<path style="fill:#df232b; stroke:none;" d="M183 136L184 137L183 136z"/>
<path style="fill:#292425; stroke:none;" d="M294 144L299 143C305.539 154.361 311.026 141.21 320 145C316.753 135.044 293.215 130.216 294 144z"/>
<path style="fill:#df232b; stroke:none;" d="M310 136L311 137L310 136M424 136L425 137L424 136M194 137L195 138L194 137M211.667 137.333L212.333 137.667L211.667 137.333M244 137L245 138L244 137M262 137L263 138L262 137M283 137L284 138L283 137M416 138L417 139L416 138M138 139L139 140L138 139M243 139L244 140L243 139M258 140L259 141L258 140M293 140L294 141L293 140M340 140L341 141L340 140M148 141L149 142L148 141M171 141L172 142L171 141M257 141L258 142L257 141M263.667 141.333L264.333 141.667L263.667 141.333M283 141L284 142L283 141M407 141L408 142L407 141M425 141L426 142L425 141M154 142L155 143L154 142M175 142L176 143L175 142M315 142L316 143L315 142M158 143L159 144L158 143M281 143L282 144L281 143M297 143L298 144L297 143M311.333 143.667L311.667 144.333L311.333 143.667M418 143L419 144L418 143M186 144L187 145L186 144M235 144L236 145L235 144M241 144L242 145L241 144M397 144L398 145L397 144M415 144L416 145L415 144M205 145L206 146L205 145M412 145L413 146L412 145M385 146L386 147L385 146M336 147L337 148L336 147M373.667 147.333L374.333 147.667L373.667 147.333M216 148L217 149L216 148M353 148L354 149L353 148M180 149L181 150L180 149M219 149L220 150L219 149M401 149L402 150L401 149M188 150L188 151L191 151L188 150M195 150L195 151L201 151L195 150M222 150L223 151L222 150M397 150L398 151L397 150M225 151L226 152L225 151M337 151L338 152L337 151M343.667 151.333L344.333 151.667L343.667 151.333M392 151L393 152L392 151M209 152L210 153L209 152M229 152L230 153L229 152M384 152L385 153L384 152M368 153L368 154L371 154L368 153M294 154L295 155L294 154M218 155L219 156L218 155z"/>
<path style="fill:#292425; stroke:none;" d="M280 156C281.419 166.059 294.258 164.794 295 155L280 156z"/>
<path style="fill:#df232b; stroke:none;" d="M222 156L223 157L222 156M281 156L282 157L281 156M347 156L348 157L347 156M233 159L233 162L234 162L233 159M292 162L293 163L292 162M165 163L166 164L165 163M197 163L198 164L197 163M286 163L286 164L289 164L286 163M362 164L363 165L362 164M412 164L413 165L412 164M148 165L149 166L148 165M249 165L250 166L249 165M264 165L265 166L264 165M312 165L313 166L312 165M417 165L418 166L417 165M242 166L243 167L242 166M292 166L293 167L292 166M317 166L318 167L317 166M371 166L372 167L371 166M385 166L386 167L385 166M420 166L421 167L420 166M181 167L182 168L181 167M227 167L228 168L227 167M232 167L233 168L232 167M274 167L275 168L274 167M423 167L424 168L423 167M229 168L230 169L229 168M335 168L336 169L335 168M376 168L377 169L376 168M425 168L426 169L425 168M141 169L142 170L141 169M160 169L160 170L165 170L160 169M427 169L428 170L427 169M140 170L141 171L140 170M154 170L155 171L154 170z"/>
<path style="fill:#fdfdfd; stroke:none;" d="M154 184C164.346 175.421 176.967 207.492 188.193 195.047C191.371 191.523 184.258 182.832 182.173 180.003C175.024 170.301 158.815 165.765 148.146 173.078C136.298 181.2 147.473 202.65 160.77 196.155C167.782 192.73 157.208 185.494 154 184z"/>
<path style="fill:#df232b; stroke:none;" d="M169 170L170 171L169 170M186 173C191.465 190.998 201.956 196.898 220 196.987C224.178 197.008 234.447 196.957 236.665 192.489C238.479 188.836 233.24 181.802 231.165 179.031C221.55 166.189 199.305 168.459 186 173M251 170L252 171L251 170z"/>
<path style="fill:#fdfdfd; stroke:none;" d="M235 174C240.446 185.156 248.29 201.671 263 195C261.68 192.791 253.257 184.264 255.13 182.015C257.277 179.436 262.321 185.772 263.429 187.011C270.888 195.346 276.708 200.021 288 196C282.521 168.431 257.207 167.783 235 174z"/>
<path style="fill:#df232b; stroke:none;" d="M262 170L263 171L262 170M280 170L281 171L280 170M282 170L283 171L282 170M285 174C290.522 192.186 300.855 198.022 319 198C323.38 197.995 333.396 198.684 335.583 193.648C337.293 189.711 332.292 182.976 330.038 180.063C319.803 166.836 298.977 169.6 285 174M330 170L331 171L330 170M352.667 170.333L353.333 170.667L352.667 170.333z"/>
<path style="fill:#fdfdfd; stroke:none;" d="M335 174C339.549 185.962 346.364 199.292 361 196C359.926 192.879 353.227 186.244 353.864 183.509C354.619 180.268 360.028 185.3 360.804 186.078C369.082 194.386 374.737 200.406 387 196C379.038 169.453 358.39 168.515 335 174z"/>
<path style="fill:#df232b; stroke:none;" d="M358.667 170.333L359.333 170.667L358.667 170.333M384 173C387.445 190.336 402.309 201.156 420 197.232C424.391 196.259 430.509 195.255 432.822 190.854C435.956 184.891 429.538 178.002 424.997 175.026C413.033 167.185 397.026 169.372 384 173M139 171L140 172L139 171M345 171L346 172L345 171M368 172L369 173L368 172M337 173L338 174L337 173M432 173L433 174L432 173M137 174L138 175L137 174M144 176L145 177L144 176M336 177L337 178L336 177M143 178L144 179L143 178M337 179L338 180L337 179M281 181L282 182L281 181M241 184L242 185L241 184M185 185L186 186L185 185M262 185L263 186L262 185M382 185L383 186L382 185M354 186L355 187L354 186M362 187L363 188L362 187M384 189L385 190L384 189M438 191L439 192L438 191M268 192L269 193L268 192M345 192L346 193L345 192M164 193L165 194L164 193M269 193L270 194L269 193M360 193L361 194L360 193M386 193L387 194L386 193M139 194L140 195L139 194M148 194L149 195L148 194M174 194L175 195L174 194M347 194L348 195L347 194M368 194L369 195L368 194M271 195L272 196L271 195M161 196L162 197L161 196M178 196L179 197L178 196M251 196L252 197L251 196M286 196L287 197L286 196M359 196L360 197L359 196M371 196L372 197L371 196M284 197L285 198L284 197M374 197L375 198L374 197M382 197L383 198L382 197M434 197L435 198L434 197M291 199L292 200L291 199M391 199L392 200L391 199M200 200L201 201L200 200M363 200L364 201L363 200M164 201L165 202L164 201M173 201L174 202L173 201M189 201L190 202L189 201M205 201L206 202L205 201M232 201L233 202L232 201M271 201L272 202L271 201M287 201L288 202L287 201M299 201L300 202L299 201M348 201L349 202L348 201M368 201L369 202L368 201M423 201L424 202L423 201M161 202L162 203L161 202M177 202L178 203L177 202M213.667 202.333L214.333 202.667L213.667 202.333M224 202L225 203L224 202M254.667 202.333L255.333 202.667L254.667 202.333M277 202L278 203L277 202M282 202L283 203L282 202M304 202L305 203L304 202M326 202L327 203L326 202M373 202L374 203L373 202M381 202L382 203L381 202M408 202L408 203L412 203L408 202M135 224L136 225L135 224z"/>
<path style="fill:#292425; stroke:none;" d="M442 224L216 224L158 224C152.857 224 140.888 221.791 136.717 225.15C132.144 228.832 135 246.487 135 252L135 333C135 391.619 130.134 458.734 178 501.8C200.328 521.889 230.533 533.283 259 541.425C267.945 543.984 279.677 548.99 289 548.651C302.862 548.147 318.923 541.359 332 537C372.214 523.595 410.169 502.551 428.125 462C435.423 445.516 438.724 427.8 440.695 410C443.251 386.918 442 363.21 442 340L442 224z"/>
<path style="fill:#fdfdfd; stroke:none;" d="M143 231L143 340L262 340L262 231L143 231z"/>
<path style="fill:#df232b; stroke:none;" d="M143 346L143 382L235 382C242.007 382 262.134 378.568 267.283 383.717C269.726 386.161 268.999 390.874 269 394L269 421L269 502C269 510.536 265.826 526.872 269.717 534.506C274.613 544.11 306.688 543.212 308.784 531.962C311.627 516.703 309 498.535 309 483L309 382L434 382L434 346L309 346L309 269C309 258.861 311.824 243.803 308.479 234.216C306.24 227.797 283.803 230.972 278 231.001C275.277 231.015 271.214 230.526 269.717 233.412C266.657 239.314 269 251.425 269 258L269 317C269 323.065 272.003 340.976 266.479 344.85C259.858 349.495 240.982 346 233 346L143 346z"/>
<path style="fill:#fdfdfd; stroke:none;" d="M315 231L315 340L434 340L434 231L315 231z"/>
<path style="fill:#df232b; stroke:none;" d="M262 232L263 233L262 232M262 234L263 235L262 234M262 236L263 237L262 236M262 238L263 239L262 238z"/>
<path style="fill:#292425; stroke:none;" d="M169 249L169 260L161 260L162 318L196 318L196 322L210 322L210 318L244 318L244 260L237 260L237 249L194 247.041L169 249M341 249L341 260L334 260L334 318L368 318L368 322L382 322L382 318L416 318L416 260C409.189 259.282 409.017 254.99 409 249L384 247.041L341 249z"/>
<path style="fill:#df232b; stroke:none;" d="M182 248L183 249L182 248M201 248L202 249L201 248M223 248L224 249L223 248M354 248L355 249L354 248M376 248L377 249L376 248M395 248L396 249L395 248M171 249L171 250L175 250L171 249M231 249L231 250L234 250L231 249M345 249L345 250L348 250L345 249M403 249L403 250L406 250L403 249M194 253L195 254L194 253M211 253L212 254L211 253M364.667 253.333L365.333 253.667L364.667 253.333M383 253L384 254L383 253z"/>
<path style="fill:#fdfdfd; stroke:none;" d="M175 256L175 293L176.717 305.705L199 306L199 268C199 264.611 200.29 257.572 197.283 255.15C192.311 251.145 180.73 255.697 175 256M207 306L229.283 305.705L231 293L231 256C225.354 255.704 213.557 251.253 208.717 255.15C205.71 257.571 207 264.612 207 268L207 306z"/>
<path style="fill:#df232b; stroke:none;" d="M219 254L220 255L219 254M357 254L358 255L357 254z"/>
<path style="fill:#fdfdfd; stroke:none;" d="M346 256L346 293L348.412 305.823L370 306L370 268C370 264.612 371.29 257.571 368.283 255.15C363.443 251.253 351.646 255.704 346 256M378 306L400.283 305.688L402 293L402 256C396.27 255.697 384.69 251.145 379.717 255.15C376.71 257.572 378 264.611 378 268L378 306z"/>
<path style="fill:#df232b; stroke:none;" d="M180 255L181 256L180 255M396 255L397 256L396 255M166 259L167 260L166 259M168 259L169 260L168 259M237 259L238 260L237 259M416 260L417 261L416 260M161 261L162 262L161 261M161 263L161 312L162 312C162 297.725 165.987 276.345 161 263M416 263L417 264L416 263M214 304L215 305L214 304M363.667 304.333L364.333 304.667L363.667 304.333M383.667 304.333L384.333 304.667L383.667 304.333M186 305L187 306L186 305M219 305L220 306L219 305M346 305L347 306L346 305M357 305L358 306L357 305M379 305L380 306L379 305M390 305L391 306L390 305M176 306L177 307L176 306M353 306L354 307L353 306M395 306L396 307L395 306M161 313L161 317L162 317L161 313M416 314L417 315L416 314M416 316L417 317L416 316M262 338L263 339L262 338M135 388L135 393L136 393L135 388z"/>
<path style="fill:#fdfdfd; stroke:none;" d="M143 389C143.002 408.181 145.751 427.723 151.674 446C153.82 452.623 156.137 461.77 162 466L161 433L161.717 419.216L169 416L169 406L194 403.644L237 406L237 416L244 416L244 474C236.379 474 211.911 469.993 210 479L196 479C194.145 470.255 173.242 474 166 474C180.052 508.325 229.449 524.762 262 534L262 389L143 389z"/>
<path style="fill:#df232b; stroke:none;" d="M262.333 389.667L262.667 390.333L262.333 389.667z"/>
<path style="fill:#fdfdfd; stroke:none;" d="M315 389L315 534C341.134 527.736 368.922 516.422 390 499.599C398.491 492.823 408.235 484.513 412 474C404.758 474 383.855 470.255 382 479L368 479L368 474L334 474L334 416L341 416L341 406L366 403.535L409 406L409 416L415.723 419.216L416 435L416 467C421.686 462.898 423.553 454.382 425.666 448C431.963 428.985 434 408.93 434 389L315 389z"/>
<path style="fill:#df232b; stroke:none;" d="M434 392L435 393L434 392M441 395L442 396L441 395M143.333 400.667L143.667 401.333L143.333 400.667M192 403L192 404L196 404L192 403M210 403L210 404L214 404L210 403M364 403L364 404L369 404L364 403M382 403L382 404L386 404L382 403M186 404L187 405L186 404M219 404L220 405L219 404M358 404L359 405L358 404M391 404L392 405L391 404M225 405L226 406L225 405M397 405L398 406L397 405M433.333 406.667L433.667 407.333L433.333 406.667M136 409L137 410L136 409z"/>
<path style="fill:#fdfdfd; stroke:none;" d="M175 413L175 449L176.717 461.85L199 462L199 424C199 420.277 200.197 413.602 196.588 411.15C191.446 407.659 180.648 412.23 175 413M207 462L229.283 461.85L231 449L231 413C225.546 412.257 213.477 407.479 208.717 411.286C205.578 413.797 207 421.465 207 425L207 462z"/>
<path style="fill:#df232b; stroke:none;" d="M216 410L217 411L216 410M361 410L362 411L361 410z"/>
<path style="fill:#fdfdfd; stroke:none;" d="M347 413L347 449L348.717 461.85L371 462L371 425C371 421.465 372.422 413.797 369.283 411.286C364.523 407.479 352.454 412.257 347 413M379 462L403 463L403 413C397.352 412.23 386.554 407.659 381.412 411.15C377.803 413.602 379 420.277 379 424L379 462z"/>
<path style="fill:#df232b; stroke:none;" d="M198 411L199 412L198 411M379 411L380 412L379 411M394 411L395 412L394 411M440 411L441 412L440 411M144 412L145 413L144 412M176 412L176 413L179 413L176 412M227 412L227 413L230 413L227 412M348 412L349 413L348 412M350 412L351 413L350 412M399 412L399 413L402 413L399 412M432 416L433 417L432 416M161 417L161 465L162 465C162 450.998 165.893 430.092 161 417M137 418L138 419L137 418M416.333 418.667L416.667 419.333L416.333 418.667M439 420L440 421L439 420M431 423L432 424L431 423M138 425L139 426L138 425M438 426L439 427L438 426M430 429L431 430L430 429M139 430L140 431L139 430M147 430L148 431L147 430M140 434L141 435L140 434M148 434L149 435L148 434M429 434L430 435L429 434M149 438L150 439L149 438M428 438L429 439L428 438M434 443L435 444L434 443M143 446L144 447L143 446M416 453L417 454L416 453M146 455L147 456L146 455M416 457L417 458L416 457M156 458L157 459L156 458M429 458L430 459L429 458M148 460L149 461L148 460M157 460L158 461L157 460M416 460L417 461L416 460M216 461L217 462L216 461M361 461L362 462L361 461M149 462L150 463L149 462M175 462L176 463L175 462M221 462L222 463L221 462M230 462L231 463L230 462M356 462L357 463L356 462M393 462L394 463L393 462M416 463L416 466L417 466L416 463M161 466L162 467L161 466M416 467L417 468L416 467M154 472L155 473L154 472M195 474L196 475L195 474M210 474L211 475L210 474M412 474L413 475L412 474M421 474L422 475L421 474M411 476L412 477L411 476M167 477L168 478L167 477M408 480L409 481L408 480M417 480L418 481L417 480M170 481L171 482L170 481M415 483L416 484L415 483M162 484L163 485L162 484M404 485L405 486L404 485M174 486L175 487L174 486M175 487L176 488L175 487M412 487L413 488L412 487M166 489L167 490L166 489M184 496L185 497L184 496M393 496L394 497L393 496M404 496L405 497L404 496M388 500L389 501L388 500M190 501L191 502L190 501M181 504L182 505L181 504M394 505L395 506L394 505M390 508L391 509L390 508M202 509L203 510L202 509M189 510L190 511L189 510M192 512L193 513L192 512M207 512L208 513L207 512M368 513L369 514L368 513M383 513L384 514L383 513M195 514L196 515L195 514M211 514L212 515L211 514M364 515L365 516L364 515M215 516L216 517L215 516M378 516L379 517L378 516M200 517L201 518L200 517M353 520L354 521L353 520M371 520L372 521L371 520M207 521L208 522L207 521M226 521L227 522L226 521M351 521L352 522L351 521M209 522L210 523L209 522M211 523L212 524L211 523M346 523L347 524L346 523M239 526L240 527L239 526M220 527L221 528L220 527M242 527L243 528L242 527M262.333 528.667L262.667 529.333L262.333 528.667M332 528L333 529L332 528M329 529L330 530L329 529M352 529L353 530L352 529M229 531L230 532L229 531M323 531L324 532L323 531M262 532L263 533L262 532M260 533L261 534L260 533M342 533L343 534L342 533M339 534L340 535L339 534M336 535L337 536L336 535M333 536L334 537L333 536M330 537L331 538L330 537M327 538L328 539L327 538M324 539L325 540L324 539M321 540L322 541L321 540M259 541L260 542L259 541M306 544L307 545L306 544M302 545L303 546L302 545M278 546L279 547L278 546M298 546L299 547L298 546M282 547L283 548L282 547M294 547L295 548L294 547M247 580L248 581L247 580z"/>
<path style="fill:#292425; stroke:none;" d="M248 580.46C200.26 587.811 189.957 663.976 239 678.048C246.596 680.228 255.183 680.743 263 679.54C312.072 671.984 319.206 593.337 269 581.444C262.231 579.84 254.896 579.398 248 580.46z"/>
<path style="fill:#df232b; stroke:none;" d="M264 580L265 581L264 580M269 581L270 582L269 581z"/>
<path style="fill:#292425; stroke:none;" d="M2 582C3.4955 587.673 11.0472 586.089 13.5833 592.005C16.3495 598.456 15 607.155 15 614C15 629.919 18.8973 651.816 13.9167 667C11.599 674.066 2.72765 672.094 1 678C20.6709 678 47.6563 682.664 64.9967 671.413C87.1063 657.066 75.3166 628.413 52 625C67.3521 617.763 81.5543 594.776 58.9967 585.001C42.7357 577.955 19.3953 582 2 582M103 582L103 586C107.961 586.064 112.844 586.778 114.792 592.018C117.353 598.912 116 607.768 116 615C116 630.599 119.47 650.952 115.329 666C113.174 673.829 103.794 671.868 102 678C111.001 678 136.153 682.268 142 675C122.965 671.393 128 651.422 128 636C149.818 636 151.167 657.305 164.224 670.874C171.283 678.209 180.411 678.999 190 679L176.285 664.999L154 632C170.941 624.453 183.418 597.379 161.99 586.307C145.453 577.762 121.058 582 103 582z"/>
<path style="fill:#df232b; stroke:none;" d="M149 582L150 583L149 582M239 582L240 583L239 582z"/>
<path style="fill:#292425; stroke:none;" d="M316 582L316 586C326.043 587.1 328.889 595.38 331.649 604C337.091 621.002 342.358 638.061 348 655C349.364 659.095 352.591 678.175 357.901 678.175C362.866 678.175 366.676 658.971 368 655L374.469 636C377.685 626.35 380.838 616.669 384 607C391.561 624.452 397.958 642.967 404 661C406.087 667.228 407.706 677.479 415 679C420.398 656.491 428.363 633.97 435.667 612C439.787 599.606 441.701 589.533 455 585L455 583L424 582L424 586C436.398 586.755 433.412 595.854 431.125 605C426.755 622.481 421.599 639.882 416 657C408.444 639.559 402.421 621.002 396.331 603C394.184 596.654 392.416 585.546 385 584L362 657L347 611L341.637 591.091L352 582L316 582z"/>
<path style="fill:#df232b; stroke:none;" d="M454 582L455 583L454 582M472 582L473 583L472 582z"/>
<path style="fill:#292425; stroke:none;" d="M472 583L472 585C477.205 586.758 482.577 586.872 485.843 592.06C489.354 597.637 488 605.712 488 612C488 628.411 492.402 652.521 486.37 667.982C483.96 674.16 475.647 672.37 474 678L510 678L495.63 667L494 644L494 602C510.941 619.879 525.661 640.079 541.416 659C546.927 665.619 553.06 677.276 562 679C562 655.366 561.327 631.622 562.027 608C562.338 597.507 563.317 586.47 576 586L576 582L541 582L541 586C545.726 586.145 551.04 586.669 553.742 591.153C557.223 596.931 556 605.567 556 612L556 656C541.496 639.279 527.583 622.008 513.416 605C507.891 598.368 501.579 587.287 493.885 583.15C488.547 580.279 477.641 581.465 472 583z"/>
<path style="fill:#df232b; stroke:none;" d="M54 583L55 584L54 583M154 583L155 584L154 583M386 583L386 584L389 584L386 583M423.333 583.667L423.667 584.333L423.333 583.667M389 584L390 585L389 584M2 585L3 586L2 585M160 585L161 586L160 585M246 585L247 586L246 585z"/>
<path style="fill:#fdfdfd; stroke:none;" d="M247 585.503C202.986 593.822 216.17 683.538 264 674.497C278.108 671.83 285.716 659.11 288.187 646C293.174 619.542 281.13 579.052 247 585.503z"/>
<path style="fill:#df232b; stroke:none;" d="M259 585L260 586L259 585M351 585L352 586L351 585M33 586L33 587L39 587L33 586M133 586L133 587L137 587L133 586z"/>
<path style="fill:#fdfdfd; stroke:none;" d="M137 586.739C122.841 586.91 128 608.647 128 619C128 623.708 126.506 631.429 133.042 631.839C165.147 633.857 169.779 586.344 137 586.739z"/>
<path style="fill:#df232b; stroke:none;" d="M138.667 586.333L139.333 586.667L138.667 586.333M162 586L163 587L162 586M263 586L264 587L263 586M345 586L346 587L345 586M449 586L450 587L449 586M478 586L479 587L478 586M497 586L498 587L497 586M569 586L570 587L569 586z"/>
<path style="fill:#fdfdfd; stroke:none;" d="M27 624C32.9952 624 39.1849 624.409 44.9999 622.656C58.7443 618.515 62.4699 596.08 48.9694 589.056C44.918 586.948 31.54 584.508 28.1497 588.717C26.1587 591.19 27.0003 596.055 27 599L27 624z"/>
<path style="fill:#df232b; stroke:none;" d="M145 587L146 588L145 587M240 587L241 588L240 587M282 587L283 588L282 587M323 587L324 588L323 587M390 587L391 588L390 587M481 587L482 588L481 587M498 587L499 588L498 587M113 588L114 589L113 588M238 588L239 589L238 588M268 588L269 589L268 588M433 588L434 589L433 588M552 588L553 589L552 588M285 589L286 590L285 589M484 589L485 590L484 589M553 589L554 590L553 589M13 590L14 591L13 590M51 590L52 591L51 590M66 590L67 591L66 590M235 590L236 591L235 590M168 591L169 592L168 591M327 592L328 593L327 592M392 592L393 593L392 592M442 592L443 593L442 592M68 593L69 594L68 593M341 593L342 594L341 593M115 594L116 595L115 594M14.3333 595.667L14.6667 596.333L14.3333 595.667M55 595L56 596L55 595M69 595L70 596L69 595M156 595L157 596L156 595M393 595L394 596L393 595M171 596L172 597L171 596M229 596L230 597L229 596M555.333 596.667L555.667 597.333L555.333 596.667M293 597L294 598L293 597M440 597L441 598L440 597M70 599L71 600L70 599M432 599L433 600L432 599M159 602L160 603L159 602M562 602L562 606L563 606L562 602M344 603L345 604L344 603M438 603L439 604L438 603M57.3333 604.667L57.6667 605.333L57.3333 604.667M213 604L214 605L213 604M224 605L225 606L224 605M378 605L379 606L378 605M513 605L514 606L513 605M70 606L71 607L70 606M332 606L333 607L332 606M345 606L346 607L345 606M498 606L499 607L498 606M384 607L385 608L384 607M223 608L224 609L223 608M285 609L286 610L285 609M346 609L347 610L346 609M210 610L211 611L210 610M300 610L301 611L300 610M382 611L383 612L382 611M429 611L430 612L429 611M518 611L519 612L518 611M68 612L69 613L68 612M172 612L173 613L172 612M286 612L287 613L286 612M347 612L348 613L347 612M399 612L400 613L399 612M503 612L504 613L503 612M301 613L302 614L301 613M55 614L56 615L55 614M381 614L382 615L381 614M348 615L349 616L348 615M375 615L376 616L375 615M287 616L288 617L287 616M158 617L159 618L158 617M221 617L222 618L221 617M302 617L303 618L302 617M380 617L381 618L380 617M401 617L402 618L401 617M523 617L524 618L523 617M374 618L375 619L374 618M388 618L389 619L388 618M427 618L428 619L427 618M433 618L434 619L433 618M508 618L509 619L508 618M51 619L52 620L51 619M207 620L208 621L207 620M48 621L49 622L48 621M373 621L374 622L373 621M167 622L168 623L167 622M288 622L289 623L288 622M41 623L42 624L41 623M166 623L167 624L166 623M303.333 623.667L303.667 624.333L303.333 623.667M528 623L529 624L528 623M154 624L155 625L154 624M165 624L166 625L165 624M372 624L373 625L372 624M351 625L352 626L351 625M425 625L426 626L425 625M377 626L378 627L377 626M391 626L392 627L391 626M61 627L62 628L61 627M151 627L152 628L151 627M371 627L372 628L371 627z"/>
<path style="fill:#fdfdfd; stroke:none;" d="M27 628C27 638.871 23.0992 659.159 28.6483 668.73C33.1823 676.549 48.9517 673.195 54.874 668.974C69.875 658.283 61.8155 634.144 46 629.633C39.7886 627.861 33.3891 628 27 628z"/>
<path style="fill:#df232b; stroke:none;" d="M40 628L41 629L40 628M63 628L64 629L63 628M148 629L149 630L148 629M206 629L206 634L207 634L206 629M376 629L377 630L376 629M533 629L534 630L533 629M48 630L49 631L48 630M370 630L371 631L370 630M137 631L137 632L140 632L137 631M429 631L430 632L429 631M375 632L376 633L375 632M423 632L424 633L423 632M303 633L304 634L303 633M55 634L56 635L55 634M155 634L156 635L155 634M341 634L342 635L341 634M394 634L395 635L394 634M428 634L429 635L428 634M56 635L57 636L56 635M522 635L523 636L522 635M538 635L539 636L538 635M57 636L58 637L57 636M221 636L222 637L221 636M73 637L74 638L73 637M408 637L409 638L408 637M373 638L374 639L373 638M158 639L159 640L158 639M367 640L368 641L367 640M426 640L427 641L426 640M75 641L76 642L75 641M145 641L146 642L145 641M527 641L528 642L527 641M543 641L544 642L543 641M410 642L411 643L410 642M420 643L421 644L420 643M161 644L162 645L161 644M288 644L289 645L288 644M411 645L412 646L411 645M148 646L149 647L148 646M365 646L366 647L365 646M419 646L420 647L419 646M531 646L532 647L531 646M345 647L346 648L345 647M548 647L549 648L548 647M399 648L400 649L399 648M62 649L63 650L62 649M209 649L210 650L209 649M287 649L288 650L287 649M364 649L365 650L364 649M418 649L419 650L418 649M299 650L300 651L299 650M359 650L360 651L359 650M423 650L424 651L423 650M151 651L152 652L151 651M363 652L364 653L363 652M62 653L63 654L62 653M368 653L369 654L368 653M401 653L402 654L401 653M553 653L554 654L553 653M76 654L77 655L76 654M226 654L227 655L226 654M169 656L170 657L169 656M227 656L228 657L227 656M367 656L368 657L367 656M494 657L495 658L494 657M540 657L541 658L540 657M295 658L296 659L295 658M61 659L62 660L61 659M366 659L367 660L366 659M487.333 659.667L487.667 660.333L487.333 659.667M420 660L421 661L420 660M231 662L232 663L231 662M350 662L351 663L350 662M365 662L366 663L365 662M14.3333 663.667L14.6667 664.333L14.3333 663.667M217 663L218 664L217 663M545 663L546 664L545 663M115 665L116 666L115 665M128 665L129 666L128 665M364 665L365 666L364 665M277 667L278 668L277 667M276 668L277 669L276 668M13 669L14 670L13 669M28 669L29 670L28 669M67 669L68 670L67 669M52 670L53 671L52 670M407 670L408 671L407 670M30 671L31 672L30 671M130 671L131 672L130 671M181 671L182 672L181 671M32 672L33 673L32 672M227 672L228 673L227 672M39.6667 673.333L40.3333 673.667L39.6667 673.333M133 673L134 674L133 673M246 673L247 674L246 673M481 673L482 674L481 673M501 673L502 674L501 673M2.66667 674.333L3.33333 674.667L2.66667 674.333M103.667 674.333L104.333 674.667L103.667 674.333M139.667 674.333L140.333 674.667L139.667 674.333M168 674L169 675L168 674M249 674L250 675L249 674M264 674L265 675L264 674M475.667 674.333L476.333 674.667L475.667 674.333M507.667 674.333L508.333 674.667L507.667 674.333M232 675L233 676L232 675M409 675L410 676L409 675M141.333 676.667L141.667 677.333L141.333 676.667M245 679L246 680L245 679z"/>
</svg>
