<?xml version="1.0" standalone="yes"?>
<svg xmlns="http://www.w3.org/2000/svg" width="250" height="260">
<path style="fill:#fbfdfd; stroke:none;" d="M0 0L0 260L250 260L250 0L0 0z"/>
<path style="fill:#113073; stroke:none;" d="M24 88L110 78L178 81.0833L222 88C222.218 74.9995 224 62.107 224 49C224 45.0956 225.298 38.3293 222.667 35.1111C220.319 32.2395 215.378 32.0693 212 31.3889C202.727 29.5214 193.358 28.1202 184 26.8056C145.113 21.3428 102.805 20.1436 64 26.6111C54.3422 28.2207 44.6227 29.2788 35 31.1944C31.3988 31.9113 25.8328 32.0543 23.3333 35.1111C20.7019 38.3293 22 45.0955 22 49C22 62.1029 23.7816 75.0035 24 88z"/>
<path style="fill:#fbfdfd; stroke:none;" d="M47 76L131 70L199 76C197.634 70.3944 194.665 65.2155 192.25 60C189.4 53.8441 187.345 45.1355 182.75 40.0833C167.665 23.4983 140.601 37.8333 123 37.8333C105.458 37.8333 78.3099 23.5745 63.25 40.0833C58.7041 45.0666 56.2229 53.8345 53.6111 60C51.3723 65.285 48.3627 70.4083 47 76z"/>
<path style="fill:#113073; stroke:none;" d="M76 40C66.7247 45.651 61.598 56.3394 59 67L118 65L106 59.6389L71 58L76 40M169 40L175 58L141 59.2222L128 65L187 67C183.045 56.5408 180.082 44.3302 169 40M119 238L119 134C119 120.204 122.71 99.8849 118 87C96.2771 91.1073 73.0527 89.4732 51 92.9444C45.8791 93.7505 29.8171 93.9683 26.7222 98.3333C24.8904 100.917 27.0495 106.211 27.6111 109C29.5342 118.549 32.1963 127.781 35.3333 137C46.0159 168.394 65.465 197.943 91 219.222C99.1477 226.012 108.724 234.805 119 238M146 163L127 151L127 238L145.278 226.583L146 209L146 164L163.889 176.639L164 209C173.011 205.706 179.785 193.458 185.361 186C202.776 162.708 220 126.71 220 97L202 94L202 156C196.766 153.757 187.64 149.018 184.694 143.972C182.598 140.38 183.991 134.931 184 131C184.024 120.713 187.569 102.503 183.611 93.0278C182.194 89.6348 167.221 88.3085 164.944 91.3333C161.973 95.2814 164 106.205 164 111C164 117.575 164.675 124.485 164 131L146.722 118.917L146 88C141.882 88 131.708 85.9933 128.333 88.0278C125.331 89.8373 126.152 105.919 128.333 108.306C132.875 113.275 143.337 115.252 145.667 122C149.491 133.077 146 151.239 146 163z"/>
<path style="fill:#fbfdfd; stroke:none;" d="M76.9167 103.444C69.4916 104.38 63.0611 106.162 57.0278 110.861C29.0301 132.668 50.6442 176.163 84 171.917C126.26 166.536 119.063 98.1355 76.9167 103.444z"/>
<path style="fill:#113073; stroke:none;" d="M57 119L64 121L71 110C65.0842 110.721 60.178 114.012 57 119M87 110L93 121L100 119C97.9685 113.536 92.4651 111.125 87 110M81 112L81 122L88 122L81 112M75 113L70 122L76 122L75 113M53 123L50 135L61 135L62 125L53 123M95 126L97 135L108 135L104 123L95 126M81 127L81 135L92 135L90 126L81 127M67 127L66 135L76 135L76 127L67 127z"/>
<path style="fill:#fbfdfd; stroke:none;" d="M165 133L165 163L165.722 175.778L183 187L183 157L182.278 144.417L165 133z"/>
<path style="fill:#113073; stroke:none;" d="M53 153L62 151L60 140C49.4931 141.324 49.1911 142.928 53 153M66 140L67 149C74.7748 149 76 147.775 76 140L66 140M92 141C90.489 140.666 89.164 140.38 87.6111 140.389C72.6772 140.473 90.1395 158.712 92 141M97 140L95 150L104 153L108 141L97 140M70 154L76 163L76 154L70 154M81 154L81 163L88 154L81 154M57 157C60.2437 162.027 65.1877 164.803 71 166L64 155L57 157M93 155L87 166C92.1157 164.753 98.0389 162.094 100 157L93 155z"/>
</svg>
