<?xml version="1.0" standalone="yes"?>
<svg xmlns="http://www.w3.org/2000/svg" width="405" height="84">
<path style="fill:#232323; stroke:none;" d="M0 0L0 84L405 84L405 0L0 0z"/>
<path style="fill:#c3c3c3; stroke:none;" d="M41 7C38.5097 20.7476 28.3665 18.7838 18 17C22.6019 27.189 22.1902 39.0477 8 40L8 43C22.4035 43.9666 22.2586 55.755 18 66C25.8688 64.2169 31.9204 59.594 38.6566 67.108C41.2173 69.9643 41.8477 73.8099 45 76C47.5311 62.0256 57.4827 63.7538 68 66C64.7995 57.0531 62.0856 48.8082 73.0008 43.5725C79.5606 40.426 88.9136 42 96 42L147 42L344 42C351.2 42 365.492 39.275 371.722 43.179C377.389 46.7296 373.689 64.1798 380.961 62.2886C389.456 60.079 378.247 48.9171 376 45C380.736 47.4637 382.961 53.9388 387.259 55.8241C390.896 57.4192 394.898 51.5052 392.342 48.6034C389.568 45.4544 382.715 45.4348 379 42L395 46C394.998 43.5163 395.909 37.8873 392.682 36.9668C388.859 35.8763 380.708 39.9982 376 40L321 40L124 40C108.271 40 91.6341 41.5644 76 39.892C70.5198 39.3057 65.7987 35.3684 64.3395 29.9992C62.9769 24.9856 65.9335 20.718 67 16C59.9845 18.8875 53.7311 22.4504 47.3403 15.7863C44.7347 13.0692 43.9875 9.23359 41 7z"/>
<path style="fill:#232323; stroke:none;" d="M41 14C36.2697 20.5536 30.7888 22.4245 23 21C24.6145 29.7277 22.3726 35.7592 15 41L15 42C21.9885 46.9678 24.5315 52.626 23 61C31.8763 59.8841 37.5661 61.3557 43 69C49.9512 64.1656 54.0871 59.8839 63 62C61.8841 53.1237 63.3557 47.4339 71 42L71 41C63.4823 36.5599 61.1091 30.4338 62 22C53.6512 21.9991 48.1421 21.2184 43 14L41 14z"/>
<path style="fill:#c3c3c3; stroke:none;" d="M123 15L123 33L125 33L126 23C130.151 25.2889 129.984 28.5795 130 33L133 33C132.996 26.4146 133.032 20.939 125 22L125 15L123 15M177 15L176 33L179 33L177 15M314 15L314 22C308.959 21.3382 301.249 25.75 306.743 31.3958C308.939 33.6527 313.141 32.7915 316 33L316 15L314 15M152 30L151 31C154.015 33.2806 161.14 33.7969 160.534 28.0239C160.131 24.1875 150.873 18.6943 160 19C157.716 15.811 151.868 15.9869 151.867 21.0008C151.867 24.1582 162.134 32.7976 152 30M271 30L270 31C273.042 33.301 280.129 33.7812 279.534 27.9992C279.133 24.0997 269.927 18.6951 279 19C276.738 15.9016 271.227 16.1543 271.377 21.0116C271.478 24.3087 282.245 33.9683 271 30M109 17L109 18L114 18L114 33L117 33L117 18L122 18L109 17M244 17L244 33L247 33L247 25C253.183 25.0731 255.79 26.5566 256 33L258 33L258 17L256 17L256 23L247 23L247 17L244 17M144 32L144 31C140.239 31.1227 138.726 30.3527 137 27L145 27C139.367 11.3383 126.561 36.9493 144 32M167.108 21.6813C160.385 23.017 162.715 34.3175 169.942 32.6628C176.683 31.1197 173.835 20.345 167.108 21.6813M186.015 21.8009C179.207 22.5564 179.865 33.3068 186.989 32.7932C194.615 32.2434 193.278 20.995 186.015 21.8009M194 22L194 33L198 23L200 23L201 33L204 32L204 23C208.151 25.2889 207.984 28.5794 208 33L210 33C210 20.4914 205.384 21.3424 194 22M217.04 21.7616C209.82 22.9218 211.512 33.6928 218.96 32.7276C226.339 31.7715 224.23 20.6061 217.04 21.7616M226 22L226 33L228 33L229 23C233.419 25.3406 232.933 28.5701 234 33C239.789 25.3574 233.139 21.5009 226 22M283 22L283 33L285 33C285.034 23.262 289.966 23.2619 290 33C298.004 27.8104 289.626 21.2404 283 22M328 32L328 31L321 28L329 27C324.337 11.3091 310.215 37.0503 328 32z"/>
<path style="fill:#232323; stroke:none;" d="M168.119 23.3457C164.113 23.4218 164.613 31.7807 168.779 31.0787C172.426 30.4643 171.868 23.2745 168.119 23.3457z"/>
<path style="fill:#c3c3c3; stroke:none;" d="M294 22L296 39L297 39L304 22L299 29L294 22M331 22L331 33L334 33L337 23L331 22z"/>
<path style="fill:#232323; stroke:none;" d="M137 26L142 26C140.228 23.3184 138.772 23.3185 137 26M185.394 24.0864C181.908 26.2988 184.625 33.5017 188.272 30.9136C191.149 28.8723 189.264 21.6303 185.394 24.0864M216.584 24.0864C213.771 26.0663 215.694 33.4944 219.277 30.9136C222.127 28.8606 220.326 21.4522 216.584 24.0864M309.559 24.0864C307.24 25.7749 308.057 32.759 311.624 30.8241C315.04 28.9713 313.136 21.483 309.559 24.0864M321 26L326 26L326 23L321 26z"/>
<path style="fill:#c3c3c3; stroke:none;" d="M40.0008 28.5725C23.6859 32.4446 29.683 57.5794 45.9992 53.5802C61.5559 49.7673 55.5747 24.8763 40.0008 28.5725M262 30L261 33L264 33L262 30z"/>
<path style="fill:#232323; stroke:none;" d="M38.0154 32.0278C26.1504 38.1478 35.2556 56.744 46.9954 50.8202C59.1576 44.6833 50.326 25.678 38.0154 32.0278M388 42L393 44L393 39L388 42z"/>
<path style="fill:#c3c3c3; stroke:none;" d="M220 63L223 63C223.004 57.4219 221.964 50.2877 226 46C217.827 46.404 219.996 57.2509 220 63M83 47L83 63C89.6074 62.9993 107.385 55.7401 94.7716 48.0278C91.6333 46.109 86.53 47 83 47M234 47L234 63L235 63L235 52L247 63L248 47L245 48L246 57L234 47M314 47L314 49L316 49L316 47L314 47z"/>
<path style="fill:#232323; stroke:none;" d="M86 62C105.011 60.9584 86.2952 39.7228 86.0046 54.9992C85.9603 57.3311 86 59.6677 86 62z"/>
<path style="fill:#c3c3c3; stroke:none;" d="M145 49C144.369 53.4244 143.146 62.6928 149 63C146.917 59.2473 146.999 56.7711 149 53L145 49M195 49C194.444 54.2103 194.088 60.1694 198 64L199 63L199 53L199 52L195 49z"/>
<path style="fill:#232323; stroke:none;" d="M387 49L390 54L391 50L387 49z"/>
<path style="fill:#c3c3c3; stroke:none;" d="M109 61L102 58L109 58C109.939 51.5116 101.899 49.5128 100.002 56.0432C98.362 61.6908 105.49 65.5421 109 61M112 52L112 69L114 69L114 63C126.474 62.6976 123.635 51.187 112 52M125 54L130 54L130 56C121.085 58.8888 125.791 63.4842 133 63C132.997 58.7218 131.1 46.0945 125 54M151 53L154 63L155 53L159 63L161 63L162 53L164 53L165 63L168 63C167.999 51.6479 161.714 49.0795 151 53M179 62L179 61L172 58L179 58C181.15 43.1529 159.7 60.9281 174.971 63.0478C176.397 63.2459 177.736 62.4645 179 62M182 52L182 63L184 63L188 53L189 63L192 63C191.994 54.4468 191.002 51.3706 182 52M211.015 51.9313C203.476 53.8794 206.535 64.3495 213.941 62.6628C220.647 61.1356 217.629 50.2225 211.015 51.9313M259 62L259 61L252 58L260 57C254.904 39.8509 241.737 69.3675 259 62M284.058 51.8511C277 53.9527 280.459 65.3322 287.891 62.392C294.375 59.8268 290.398 49.9632 284.058 51.8511M298 62L293 61C297.251 65.8403 302.597 58.6144 295 55L295 54L300 53C290.877 47.4486 296.244 58.7903 298 62M311 62L311 61C303.434 61.6415 303.434 53.3585 311 54C304.093 44.5404 295.74 67.9631 311 62M328 62L328 61L321 58L329 57C323.985 40.1227 311.473 69.0541 328 62M331 52L331 63L333 63L334 53C338.151 55.2889 337.984 58.5795 338 63L340 63C339.999 55.1481 339.679 51.5245 331 52M352 62L352 61C344.386 61.2416 344.065 53.1034 352 54C344.923 44.1209 336.857 68.4627 352 62M364 62L364 61L357 58L365 57C359.204 40.8958 346.642 68.4263 364 62M136 53L139 63L143 53L136 53M262 52C259.594 60.1606 262.988 63.5377 271 63L271 52L269 52L265 62L264 52L262 52M274 63L275 63L279 52C272.37 52.5166 272.368 57.4776 274 63M314 52L314 63L316 63L316 52L314 52z"/>
<path style="fill:#232323; stroke:none;" d="M102 56L108 56C105.878 53.0542 104.122 53.0542 102 56M115.698 54.0864C112.974 56.1171 114.645 63.5439 118.276 60.9136C121.019 58.9271 119.146 51.5166 115.698 54.0864M172 56L178 56C175.589 53.5627 174.143 53.1403 172 56M210.584 54.0864C207.708 56.1108 209.726 63.5114 213.416 60.9136C216.292 58.8892 214.274 51.4886 210.584 54.0864M252 56L257 56C255.232 53.2502 253.898 53.4252 252 56M284.584 54.0864C281.708 56.1108 283.726 63.5114 287.416 60.9136C290.292 58.8892 288.274 51.4886 284.584 54.0864M321 56L326 56L326 53L321 56M357 56L362 56C360.228 53.3184 358.772 53.3184 357 56M379 55L378 61L383 59L379 55M129 57L126 59L126 61L127 62L129 62L129 57z"/>
</svg>
