<?xml version="1.0" standalone="yes"?>
<svg xmlns="http://www.w3.org/2000/svg" width="389" height="406">
<path style="fill:#fdfcfd; stroke:none;" d="M0 0L0 406L389 406L389 0L0 0z"/>
<path style="fill:#111358; stroke:none;" d="M262 7L261 11L262 7z"/>
<path style="fill:#df1d14; stroke:none;" d="M240 8L241 9L240 8z"/>
<path style="fill:#111358; stroke:none;" d="M241 8L242 9L241 8z"/>
<path style="fill:#df1d14; stroke:none;" d="M260 8L261 9L260 8M237 9C230.864 12.0826 219.941 10 213 10C194.094 10 169.286 15.4538 162.194 35.6111C160.188 41.3148 154.859 57.1886 162 61C159.977 77.6035 191.364 84.1615 203 82.2222C208.833 81.2501 218 79.0573 218 72C225.888 68.01 218.76 52.6013 210 54L204 52L204 53L209 53L209 54C204.743 56.939 208.449 65.1476 199 65.6945C188.122 66.324 187.288 53.6994 195.778 49.3055C202.577 45.7868 211.868 48.8019 219 49C230.807 49.328 241.728 45.6187 251 38.3611C255.182 35.088 261.276 29.4755 261 24L263 24L262 22L265 19L253 25C254.654 23.3459 255.895 21.6572 257 20C258.016 18.4756 259.289 17.5999 260 16C266.105 2.26355 244.375 15.1234 244 17L227 19L227 18L236 14L237 13L237 9z"/>
<path style="fill:#111358; stroke:none;" d="M236 12L241 10L236 12M234 10L235 11L234 10z"/>
<path style="fill:#df1d14; stroke:none;" d="M239 10L240 11L239 10z"/>
<path style="fill:#111358; stroke:none;" d="M198 11L199 12L198 11z"/>
<path style="fill:#df1d14; stroke:none;" d="M238 11L239 12L238 11z"/>
<path style="fill:#111358; stroke:none;" d="M194 12L195 13L194 12M234 13L235 14L234 13M233 14L234 15L233 14M245 15L246 16L245 15M243 16L244 17L243 16M265 16L266 17L265 16z"/>
<path style="fill:#df1d14; stroke:none;" d="M264.667 17.3333L265.333 17.6667L264.667 17.3333z"/>
<path style="fill:#111358; stroke:none;" d="M263 18L263 20L265 18L263 18M255 20L254 22L255 20M262 20L261 22L262 20M262 22L263 23L262 22M261 24L262 25L261 24M253 34L254 35L253 34M162 35L163 36L162 35M161 37L162 38L161 37M196 48L197 49L196 48M159.333 52.6667L159.667 53.3333L159.333 52.6667M206 53L206 54L209 54L206 53M210.667 53.3333L211.333 53.6667L210.667 53.3333M161 61L162 62L161 61M220.333 61.6667L220.667 62.3333L220.333 61.6667M220 66L220 69L221 69L220 66M219 69L220 70L219 69M218 72L219 73L218 72M177 77L178 78L177 77M178 78L179 79L178 78M181 79L182 80L181 79z"/>
<path style="fill:#df1d14; stroke:none;" d="M238 91L239 92L238 91z"/>
<path style="fill:#111358; stroke:none;" d="M63 165L152 147L138.861 200L105.139 333L89 398L162 398C173.951 334.792 189.534 271.421 205.139 209C209.452 191.747 212.938 174.283 217.139 157C218.77 150.289 218.936 139.94 222.722 134.111C225.926 129.18 238.838 130 244 130C262.395 130 292.498 133.152 292.556 158C292.625 188.217 259.235 213.735 236 227.611C228.775 231.926 217.353 234.953 211.333 240.639C208.229 243.57 208.334 252.892 207.611 257C205.021 271.725 200.753 287.069 200 302C214.129 298.616 228.501 290.622 241 283.389C277.922 262.022 309.115 232.392 328.222 194C339.645 171.049 346.803 137.63 328.778 116C314.79 99.2153 293.709 93.978 273 91.9167C237.89 88.4219 203.751 96.3771 169 99.9167C151.518 101.697 123.068 100.471 108 110.028C99.9193 115.153 94.4032 124.575 88.6111 132C80.1634 142.829 69.9311 153.132 63 165z"/>
<path style="fill:#df1d14; stroke:none;" d="M270 91L271 92L270 91M226 92L227 93L226 92M286 93L287 94L286 93M290 94L291 95L290 94M294 95L295 96L294 95M171 99L172 100L171 99M162 100L163 101L162 100M154 101L155 102L154 101M140 103L141 104L140 103M130.667 104.333L131.333 104.667L130.667 104.333M315 104L316 105L315 104M113 107L114 108L113 107M319 107L320 108L319 107M323 110L324 111L323 110M325 112L326 113L325 112M99 118L100 119L99 118M95 123L96 124L95 123z"/>
<path style="fill:#111358; stroke:none;" d="M350 123C351.81 140.23 353.656 155.692 350.611 173C342.26 220.472 306.632 261.262 268 288C251.957 299.104 235.408 309.953 218 318.778C212.01 321.815 198.382 325.545 194.722 331.25C191.885 335.673 192.034 344.804 191 350C187.832 365.914 186.28 382.33 182 398L203 398L212 338C227.697 336.021 247.057 319.163 260 310.444C306.801 278.919 355.562 233.893 359.028 174C359.838 159.999 359.881 134.218 350 123z"/>
<path style="fill:#df1d14; stroke:none;" d="M350 126L351 127L350 126M335 127L336 128L335 127M352 128L353 129L352 128M234 130L235 131L234 130M336 130L337 131L336 130M227 131L228 132L227 131M269 132L270 133L269 132M222 133L223 134L222 133M351 133L352 134L351 133M84 137L85 138L84 137M355 138L356 139L355 138M352.333 143.667L352.667 144.333L352.333 143.667M288 144L289 145L288 144M339 146L340 147L339 146M290 148L291 149L290 148M137 149L138 150L137 149M339 149L339 153L340 153L339 149M218 150L219 151L218 150M123 152L124 153L123 152M292 156L293 157L292 156M352 156L353 157L352 156M68 157L69 158L68 157M149 158L150 159L149 158M292.333 158.667L292.667 159.333L292.333 158.667M89 159L90 160L89 159M84 160L85 161L84 160M65 161L66 162L65 161M75 162L76 163L75 162M148 162L149 163L148 162z"/>
<path style="fill:#111358; stroke:none;" d="M374 162C374 225.103 337.189 274.29 287 310.306C274.208 319.485 260.867 328.271 247 335.75C241.836 338.535 229.842 342.295 226.722 347.25C224.646 350.547 225.305 357.185 224.917 361C223.66 373.335 222.295 385.668 221 398L234 398C234 388.614 235 379.306 235 370C235 365.624 234.296 358.085 236.722 354.25C239.136 350.435 247.088 347.86 251 345.75C263.069 339.241 274.591 331.94 286 324.333C326.232 297.512 361.038 258.734 372.861 211C375.94 198.571 380.77 173.616 374 162z"/>
<path style="fill:#df1d14; stroke:none;" d="M63 163L64 164L63 163M215 163L216 164L215 163M359 164L359 167L360 167L359 164M147 166L148 167L147 166M375 167L376 168L375 167M290 170L291 171L290 170M359 170L359 173L360 173L359 170M145 173L146 174L145 173M212 176L213 177L212 176M287 177L288 178L287 177M144 178L145 179L144 178M286 179L287 180L286 179M285 181L286 182L285 181M210 185L211 186L210 185M331 186L332 187L331 186M347 186L348 187L347 186M47 189L48 190L47 189z"/>
<path style="fill:#111358; stroke:none;" d="M48 189L49 190L48 189z"/>
<path style="fill:#df1d14; stroke:none;" d="M141 189L142 190L141 189z"/>
<path style="fill:#111358; stroke:none;" d="M47 190C29.7813 218.459 50.279 252.223 78 263.389C83.3312 265.536 99.1787 273.96 104.694 270.972C108.884 268.703 111.519 252.639 113 248C89.6941 243.593 63.5597 238.67 51.8889 215C48.0889 207.293 50.7665 196.537 47 190z"/>
<path style="fill:#df1d14; stroke:none;" d="M279 190L280 191L279 190M45 192L46 193L45 192M372 192L373 193L372 192M275 195L276 196L275 195M344 195L345 196L344 195M326 197L327 198L326 197M371 197L372 198L371 197M343 198L344 199L343 198M138 201L139 202L138 201M370 201L371 202L370 201z"/>
<path style="fill:#111358; stroke:none;" d="M37 203C33.9962 212.407 31.0853 221.973 32.0833 232C35.2744 264.059 69.9373 286.017 99 292L102 281C75.2088 275.934 42.9929 259.989 36.4167 231C34.5038 222.568 39.7568 209.714 37 203z"/>
<path style="fill:#df1d14; stroke:none;" d="M137 205L138 206L137 205M369 205L370 206L369 205M321 206L322 207L321 206M41.3333 209.667L41.6667 210.333L41.3333 209.667z"/>
<path style="fill:#111358; stroke:none;" d="M30 210L31 211L30 210z"/>
<path style="fill:#df1d14; stroke:none;" d="M318 211L319 212L318 211M367 211L368 212L367 211z"/>
<path style="fill:#111358; stroke:none;" d="M29 212C26.4163 220.091 23.5474 228.353 24.0278 237C26.119 274.642 60.9816 298.566 94 308L96 299C67.9899 295.94 35.6521 270.418 28.8611 243C27.602 237.917 26.4955 232.232 27.2222 227C27.8049 222.805 30.5067 215.67 29 212z"/>
<path style="fill:#df1d14; stroke:none;" d="M372 212L373 213L372 212M135 213L136 214L135 213M336 213L337 214L336 213M29 214L30 215L29 214M33 214L34 215L33 214M51 214L52 215L51 214M316 214L317 215L316 214M366 214L367 215L366 214M335 215L336 216L335 215M348 216L349 217L348 216M371 216L372 217L371 216M251 217L252 218L251 217M28 218L29 219L28 218M364 219L365 220L364 219M32 220L33 221L32 220M55 221L56 222L55 221M133 221L134 222L133 221M331 222L332 223L331 222M35 224L36 225L35 224M42 224L43 225L42 224M344 224L345 225L344 224M27 225L28 226L27 225M132 225L133 226L132 225M59 226L60 227L59 226M236 227L237 228L236 227M61 228L62 229L61 228M360 228L361 229L360 228M367 228L368 229L367 228M24.3333 229.667L24.6667 230.333L24.3333 229.667M305 229L306 230L305 229M359 230L360 231L359 230M36 231L37 232L36 231M66 232L67 233L66 232M227 232L228 233L227 232M365 233L366 234L365 233M27.3333 234.667L27.6667 235.333L27.3333 234.667M32 234L33 235L32 234M69 234L70 235L69 234M338 234L339 235L338 234M74 237L75 238L74 237M129 237L130 238L129 237M320 238L321 239L320 238M48 239L49 240L48 239M213 239L214 240L213 239M24 240L25 241L24 240M39 240L40 241L39 240M197 241L198 242L197 241M34 242L35 243L34 242M40 242L41 243L40 242M86 242L87 243L86 242M293 242L294 243L293 242M35 245L36 246L35 245M97 245L98 246L97 245M25 246L26 247L25 246M209 246L210 247L209 246M329 247L330 248L329 247M349 247L350 248L349 247M286 249L287 250L286 249M195 250L196 251L195 250M285 250L286 251L285 250M310 250L311 251L310 250M38 251L39 252L38 251M309 251L310 252L309 251M356 251L357 252L356 251M32 253L33 254L32 253M61 253L62 254L61 253M307 253L308 254L307 253M65 256L66 257L65 256M353 256L354 257L353 256M34 257L35 258L34 257M109 258L110 259L109 258M320 258L321 259L320 258M319 259L320 260L319 259M30 260L31 261L30 260M56 261L57 262L56 261M271 262L272 263L271 262M338 262L339 263L338 262M349 262L350 263L349 262M47 263L48 264L47 263M78 263L79 264L78 263M206 263L207 264L206 263M107 264L108 265L107 264M49 265L50 266L49 265M267 265L268 266L267 265M294 266L295 267L294 266M51 267L52 268L51 267M65 267L66 268L65 267M293 267L294 268L293 267M334 267L335 268L334 267M205 268L206 269L205 268M263 268L264 269L263 268M292 268L293 269L292 268M333 268L334 269L333 268M332 269L333 270L332 269M344 269L345 270L344 269M73 271L74 272L73 271M104 271L105 272L104 271M57 272L58 273L57 272M75 272L76 273L75 272M120 272L121 273L120 272M256 273L257 274L256 273M285 274L286 275L285 274M340 274L341 275L340 274M40 275L41 276L40 275M253 275L254 276L253 275M119 276L120 277L119 276M51 277L52 278L51 277M66 278L67 279L66 278M91 278L92 279L91 278M280 278L281 279L280 278M94 279L95 280L94 279M279 279L280 280L279 279M299 279L300 280L299 279M323 279L324 280L323 279M336 279L337 280L336 279M55 280L56 281L55 280M203 280L204 281L203 280M298 280L299 281L298 280M335 280L336 281L335 280M275 282L276 283L275 282M202 285L203 286L202 285M271 285L272 286L271 285M51 286L52 287L51 286M82 286L83 287L82 286M270 286L271 287L270 286M291 286L292 287L291 286M90 289L91 290L90 289M99 289L100 290L99 289M186 289L187 290L186 289M229 289L230 290L229 289M56 290L57 291L56 290M93 290L94 291L93 290M227 290L228 291L227 290M286 290L287 291L286 290M115 291L116 292L115 291M201 291L202 292L201 291M310 291L311 292L310 291M59 292L60 293L59 292M309 292L310 293L309 292M218 294L219 295L218 294M258 294L259 295L258 294M280 295L281 296L280 295M67 297L68 298L67 297M200 297L201 298L200 297M184 298L185 299L184 298M302 298L303 299L302 298M71 299L72 300L71 299M272 301L273 302L272 301M298 301L299 302L298 301M182 306L183 307L182 306M265 306L266 307L265 306M92 307L93 308L92 307M238 307L239 308L238 307M288 309L289 310L288 309M259 310L260 311L259 310M181 311L182 312L181 311M231 311L232 312L231 311M180 315L181 316L180 315M222 316L223 317L222 316M278 316L279 317L278 316M296 316L297 317L296 316M247 318L248 319L247 318M275 318L276 319L275 318M108 319L109 320L108 319M272 320L273 321L272 320M107 323L108 324L107 323M237 324L238 325L237 324M285 324L286 325L285 324M261 327L262 328L261 327M177 328L178 329L177 328M198 328L199 329L198 328M279 328L280 329L279 328M196 329L197 330L196 329M194 330L195 331L194 330M256 330L257 331L256 330M276 330L277 331L276 330M105 331L106 332L105 331M273 332L274 333L273 332M249 334L250 335L249 334M104 335L105 336L104 335M268 335L269 336L268 335M193 336L194 337L193 336M212 338L213 339L212 338M263 338L264 339L263 338M174 341L175 342L174 341M211 342L212 343L211 342M256 342L257 343L256 342M102 343L103 344L102 343M254 343L255 344L254 343M173 346L174 347L173 346M249 346L250 347L249 346M191 347L192 348L191 347M247 347L248 348L247 347M210 348L211 349L210 348M245 348L246 349L245 348M172 350L173 351L172 350M190 352L191 353L190 352M171 354L172 355L171 354M209 354L210 355L209 354M225 354L226 355L225 354M235 360L236 361L235 360M208 361L209 362L208 361M169 363L170 364L169 363M224 363L225 364L224 363M168 367L169 368L168 367M207 368L208 369L207 368M187 369L188 370L187 369M223.333 374.667L223.667 375.333L223.333 374.667M166 377L167 378L166 377M234 377L234 380L235 380L234 377M93 378L94 379L93 378M165 381L166 382L165 381M185 381L186 382L185 381M92 382L93 383L92 382M164 385L165 386L164 385M222 385L223 386L222 385M204 387L205 388L204 387M89 394L90 395L89 394M88 397L89 398L88 397z"/>
</svg>
