<?xml version="1.0" standalone="no"?>
<!DOCTYPE svg PUBLIC "-//W3C//DTD SVG 20010904//EN"
 "http://www.w3.org/TR/2001/REC-SVG-20010904/DTD/svg10.dtd">
<svg version="1.0" xmlns="http://www.w3.org/2000/svg"
 width="839.000000pt" height="851.000000pt" viewBox="0 0 839.000000 851.000000"
 preserveAspectRatio="xMidYMid meet">

<g transform="translate(0.000000,851.000000) scale(0.100000,-0.100000)"
fill="#000000" stroke="none">
<path d="M2098 8503 c1157 -2 3047 -2 4200 0 1153 1 207 2 -2103 2 -2310 0
-3254 -1 -2097 -2z"/>
<path d="M5 4245 c0 -2337 1 -3295 2 -2128 2 1167 2 3079 0 4250 -1 1170 -2
216 -2 -2122z"/>
<path d="M3845 8149 c-387 -33 -799 -138 -1190 -304 -343 -145 -757 -414
-1035 -671 -25 -23 -61 -55 -81 -73 -48 -41 -260 -275 -341 -376 -823 -1026
-1055 -2426 -609 -3671 440 -1231 1490 -2156 2766 -2439 462 -102 959 -118
1425 -44 1481 234 2690 1315 3089 2764 117 425 159 918 117 1375 -78 843 -443
1643 -1030 2260 -643 675 -1486 1087 -2405 1175 -167 16 -538 18 -706 4z m551
-29 c921 -54 1761 -422 2415 -1057 659 -640 1049 -1448 1140 -2359 16 -154 16
-566 1 -719 -64 -637 -272 -1215 -630 -1755 -52 -78 -154 -217 -201 -273 -134
-159 -246 -277 -374 -396 -932 -858 -2226 -1192 -3461 -892 -444 108 -844 286
-1227 547 -293 199 -487 373 -763 684 -114 128 -310 410 -413 595 -474 848
-604 1846 -363 2797 203 799 714 1566 1375 2063 490 368 1023 603 1605 709
320 58 579 74 896 56z"/>
<path d="M3845 7999 c-55 -5 -170 -20 -255 -34 -673 -112 -1292 -402 -1801
-843 -96 -83 -313 -299 -384 -382 -374 -435 -645 -958 -781 -1505 -88 -355
-124 -728 -104 -1074 39 -685 235 -1281 606 -1841 189 -287 374 -499 643 -738
383 -341 883 -615 1391 -762 344 -99 650 -143 1015 -143 695 -2 1312 170 1915
531 125 75 327 217 410 288 14 12 48 41 75 64 246 209 516 519 697 800 313
489 505 1039 564 1620 17 171 19 504 4 680 -63 730 -333 1402 -798 1985 -120
150 -411 442 -557 558 -573 457 -1265 735 -1980 797 -140 11 -515 11 -660 -1z
m773 -235 c12 -4 22 -14 22 -23 0 -47 89 -146 153 -170 l28 -11 -22 -30 -22
-29 -46 32 c-41 30 -87 82 -116 132 -9 15 -17 8 -62 -51 -28 -38 -60 -77 -72
-88 -19 -18 -22 -18 -46 -2 l-26 17 59 57 c34 33 70 81 86 115 16 31 31 57 35
57 3 0 16 -3 29 -6z m-207 -49 c23 -44 23 -45 4 -59 -11 -9 -23 -16 -26 -16
-3 0 -16 23 -29 51 -20 43 -22 52 -10 60 26 16 37 10 61 -36z m-340 -108 c9
-73 14 -135 12 -139 -2 -5 -29 -8 -59 -8 -54 0 -54 0 -54 -31 l0 -32 60 6 c57
5 60 4 60 -18 0 -25 -22 -35 -77 -35 -30 0 -33 -3 -33 -30 0 -27 3 -30 33 -30
17 1 51 4 74 9 39 7 42 6 46 -16 2 -14 -1 -26 -7 -28 -6 -2 -82 -10 -168 -19
-87 -9 -165 -19 -173 -22 -11 -5 -15 1 -15 24 l0 30 80 7 80 7 0 30 0 30 -60
-7 c-60 -7 -60 -7 -60 19 0 21 5 26 24 26 13 0 38 3 55 6 26 6 31 11 31 35 0
31 -1 32 -72 20 -27 -4 -48 -7 -48 -7 -3 11 -28 281 -27 282 1 1 61 7 132 14
72 7 132 14 134 16 11 10 17 -17 32 -139z m-321 58 c0 -21 -5 -25 -30 -25 -28
0 -30 -2 -30 -37 0 -66 9 -83 41 -83 24 0 29 -4 29 -25 0 -20 -5 -25 -26 -25
-26 0 -26 -1 -22 -60 2 -33 7 -62 10 -66 4 -3 16 0 28 6 24 13 25 13 34 -15 5
-17 -7 -27 -80 -64 -70 -35 -88 -41 -95 -30 -17 27 -9 45 26 58 38 13 39 18
29 109 -7 51 -8 52 -39 52 -24 0 -34 5 -38 19 -6 26 0 31 36 31 29 0 29 1 23
38 -3 20 -6 48 -6 61 0 21 -3 23 -35 18 -35 -6 -36 -5 -39 36 -1 12 55 21 147
25 33 2 37 0 37 -23z m1450 -10 c0 -1 -9 -28 -20 -60 -25 -73 -25 -72 5 -79
18 -5 23 -11 18 -24 -11 -29 25 5 73 70 l42 58 24 -19 23 -20 -33 -34 -34 -35
59 -17 c32 -10 78 -23 103 -30 29 -8 44 -17 42 -26 -6 -28 -116 -305 -130
-326 -15 -24 -68 -39 -101 -28 -15 4 -21 15 -21 35 0 29 1 30 44 24 l43 -6 56
138 c52 131 56 153 26 154 -3 0 -23 -35 -44 -77 -46 -94 -117 -171 -185 -203
-48 -23 -50 -23 -70 -5 -25 22 -26 35 -2 35 33 0 117 47 150 84 35 40 92 146
92 171 0 21 -29 19 -37 -2 -13 -36 -94 -142 -131 -172 l-39 -30 -22 23 -22 24
28 10 c15 5 41 22 57 38 30 31 96 124 96 136 0 16 -24 7 -57 -23 -33 -29 -36
-29 -54 -13 -13 12 -16 21 -9 29 11 13 3 25 -15 25 -7 0 -18 -20 -24 -44 -15
-60 -15 -59 19 -51 27 6 30 4 30 -18 0 -21 -6 -25 -39 -31 -38 -6 -38 -7 -59
-78 -11 -40 -23 -86 -27 -101 -5 -24 -9 -27 -28 -21 -12 3 -23 8 -25 9 -2 2 8
40 22 85 14 44 26 84 26 88 0 4 -25 5 -55 4 -53 -4 -55 -3 -55 22 0 25 3 26
53 26 28 0 57 4 63 8 11 7 49 111 43 116 -2 2 -14 7 -26 10 -19 6 -25 1 -43
-33 -23 -45 -23 -45 -51 -30 -19 10 -19 10 -1 34 11 13 29 51 42 85 12 33 26
60 29 60 4 0 15 -6 25 -13 15 -11 16 -18 8 -34 -13 -23 -7 -33 18 -33 12 0 20
16 30 58 7 31 15 60 16 63 3 6 54 0 54 -6z m-1992 -45 c20 -35 23 -36 94 -11
l56 19 11 -43 c15 -60 14 -65 -13 -65 -17 0 -26 7 -30 24 l-6 25 -68 -21 c-37
-11 -86 -25 -110 -31 -30 -7 -41 -15 -37 -25 3 -7 5 -20 5 -28 0 -20 25 -18
130 16 52 16 95 28 96 27 1 -1 5 -12 8 -24 6 -19 2 -23 -36 -33 -24 -6 -73
-21 -110 -32 -71 -21 -88 -19 -88 13 0 13 -7 19 -24 19 -18 0 -25 7 -30 28 -4
15 -9 35 -12 44 -4 13 7 19 53 28 75 16 77 17 57 48 -16 24 -16 26 2 39 26 19
33 17 52 -17z m1183 -135 l-3 -118 35 27 36 28 7 -27 c4 -14 3 -30 -2 -34 -5
-4 -33 -30 -63 -57 l-53 -49 -19 24 c-16 19 -17 26 -7 39 8 9 14 57 17 129 l3
113 -29 0 c-36 0 -42 5 -36 31 5 18 12 20 62 16 l56 -4 -4 -118z m-1317 -146
c26 -30 36 -37 32 -22 -6 20 -1 24 66 43 40 12 108 32 150 44 65 20 78 21 82
9 13 -32 5 -41 -40 -48 -51 -7 -50 1 -18 -113 14 -47 18 -52 37 -46 29 9 38
24 32 52 -6 24 -3 25 33 16 20 -6 23 -12 20 -48 -2 -34 -8 -43 -32 -55 -40
-19 -102 -26 -110 -12 -4 6 -16 44 -27 83 -23 82 -34 99 -56 91 -12 -5 -13
-17 -8 -64 8 -66 -8 -110 -58 -159 -30 -29 -30 -29 -59 -12 -27 15 -28 18 -11
27 9 6 33 25 52 43 31 30 33 36 29 82 -3 28 -7 53 -10 55 -3 3 -19 0 -36 -6
-26 -9 -31 -15 -26 -33 8 -32 -10 -69 -41 -86 -25 -13 -28 -13 -45 10 -19 25
-19 25 5 33 38 13 32 50 -15 101 -39 42 -40 45 -40 115 0 61 -2 71 -17 71 -46
-1 -46 -10 6 -191 27 -96 57 -194 65 -218 9 -24 13 -47 10 -52 -9 -15 -54 -10
-54 6 0 8 -29 117 -65 241 -36 125 -64 228 -62 231 2 2 40 14 83 26 l79 23 5
-96 c5 -94 6 -97 44 -141z m1510 176 c-4 -36 -3 -65 1 -65 4 0 34 14 66 32 58
30 60 31 74 12 8 -10 15 -21 15 -24 0 -3 -36 -22 -80 -42 l-80 -36 0 -45 0
-45 51 -7 c40 -6 54 -4 70 11 10 9 19 23 19 31 0 19 14 16 34 -6 22 -24 14
-55 -19 -77 -20 -13 -40 -15 -109 -9 -47 4 -90 13 -95 19 -7 8 -8 69 -4 164
l6 152 29 0 29 0 -7 -65z m1335 -205 c0 -3 -6 -13 -14 -24 -13 -17 -15 -17
-37 -2 -32 22 -34 21 -63 -27 -30 -53 -31 -64 -5 -72 22 -7 25 -22 11 -44 -8
-12 -13 -12 -36 3 -15 10 -28 16 -29 14 -11 -15 -66 -109 -66 -113 0 -3 14 -5
31 -5 24 0 30 -3 25 -16 -3 -9 -6 -20 -6 -26 0 -11 -64 -5 -151 13 -45 10 -47
12 -40 37 6 20 13 26 27 23 57 -13 67 -7 103 53 l35 59 -27 19 c-22 16 -25 23
-16 39 10 19 12 19 34 5 14 -9 28 -16 32 -16 4 0 20 22 36 49 l27 49 -30 19
c-28 18 -29 20 -15 40 15 21 15 21 94 -25 44 -26 80 -49 80 -52z m-3357 10 l3
-59 47 29 c27 17 50 30 52 30 2 0 16 -21 31 -47 27 -44 27 -47 9 -60 -25 -19
-33 -16 -44 12 -5 14 -12 25 -15 25 -5 0 -335 -188 -344 -196 -2 -2 4 -15 13
-29 14 -21 15 -29 5 -41 -6 -8 -17 -14 -23 -14 -18 0 -69 91 -57 103 5 5 67
42 138 82 l128 72 0 77 c0 76 0 76 27 76 26 0 27 -2 30 -60z m3575 -116 c29
-16 53 -34 53 -40 0 -6 -8 -22 -18 -35 -10 -13 -40 -62 -67 -109 -27 -47 -50
-87 -51 -89 -2 -2 -26 11 -53 28 l-51 31 -16 -25 c-9 -14 -15 -27 -13 -29 2
-1 23 -13 47 -26 44 -25 46 -28 36 -54 -8 -22 -17 -20 -60 9 -46 31 -58 31
-71 2 -10 -22 -6 -26 53 -58 35 -18 64 -36 64 -39 0 -3 -7 -13 -15 -24 -13
-18 -18 -16 -92 31 -43 27 -113 69 -155 94 -43 24 -78 46 -78 49 1 3 7 13 14
23 13 17 18 15 77 -22 71 -45 84 -49 93 -25 10 27 7 31 -40 59 -39 23 -44 29
-32 43 7 9 13 19 14 20 2 2 23 -8 49 -23 44 -27 46 -27 60 -9 21 27 20 29 -30
58 -25 15 -45 31 -45 35 0 8 35 68 127 218 l13 23 68 -44 c37 -23 91 -56 119
-72z m-3700 62 c17 -15 20 -22 12 -33 -16 -19 -28 -16 -66 13 -33 25 -34 27
-17 45 18 20 21 19 71 -25z m-92 -84 c14 -7 13 -10 -3 -25 -18 -16 -22 -16
-58 -1 -49 20 -48 18 -33 42 12 19 16 20 46 7 18 -8 40 -18 48 -23z m314 -19
c11 -24 10 -30 -6 -43 -27 -22 -65 -79 -61 -91 2 -5 46 16 97 47 89 53 95 55
108 38 19 -26 17 -32 -19 -50 -18 -9 -61 -32 -95 -52 l-62 -36 26 -46 c30 -54
27 -85 -12 -113 -23 -17 -26 -17 -51 -1 l-25 17 27 22 c26 21 26 22 10 53 -9
18 -22 32 -29 32 -7 0 -54 -25 -104 -55 -51 -30 -97 -55 -102 -55 -9 0 -21 23
-21 40 0 4 21 19 48 33 117 61 147 83 144 106 -1 13 8 36 19 53 l22 30 -33
-17 c-18 -9 -62 -35 -96 -56 -60 -36 -64 -37 -74 -19 -15 27 -15 27 48 59 31
17 93 52 137 80 44 27 83 50 86 50 3 1 11 -11 18 -26z m1874 -78 c861 -116
1597 -605 2031 -1349 180 -308 293 -636 348 -1010 29 -199 31 -526 4 -721
-130 -932 -679 -1702 -1507 -2114 -373 -186 -735 -276 -1159 -288 -507 -14
-1019 117 -1451 373 -434 256 -771 599 -1014 1029 -333 591 -436 1295 -285
1955 130 569 430 1074 875 1470 366 326 892 570 1391 645 244 37 538 41 767
10z m1942 -155 c65 -66 68 -71 52 -87 -16 -16 -18 -15 -45 11 l-29 27 -44 -22
c-24 -12 -46 -24 -48 -25 -2 -2 14 -19 35 -38 l39 -35 -90 -93 c-49 -51 -91
-94 -92 -97 -2 -2 -12 4 -23 14 -15 14 -17 21 -9 32 9 10 8 18 -6 33 -18 20
-19 20 -45 -5 -24 -23 -27 -24 -43 -8 -16 16 -13 22 55 90 68 68 71 73 45 73
-30 0 -30 0 -18 33 8 20 18 25 58 29 48 5 143 44 143 59 0 4 -12 17 -26 28
-22 17 -24 23 -14 36 7 8 18 15 24 15 6 0 43 -31 81 -70z m-4543 31 c2 -5 47
-55 102 -111 73 -77 101 -100 107 -89 4 8 14 23 22 34 15 19 16 19 36 1 l20
-18 -26 -35 -26 -34 67 -68 67 -67 -21 -19 c-21 -19 -22 -19 -79 43 -31 34
-62 62 -68 62 -6 0 -28 -23 -49 -51 -26 -36 -42 -49 -55 -46 -13 4 -19 -2 -24
-23 -6 -28 -6 -28 -42 -14 -19 9 -38 13 -41 9 -3 -3 30 -41 73 -85 79 -79 79
-79 60 -101 l-20 -21 -74 79 c-54 57 -72 71 -67 53 3 -14 9 -45 13 -69 5 -39
4 -44 -11 -38 -10 4 -24 7 -32 7 -10 0 -14 13 -14 43 0 59 -27 147 -45 147 -8
0 -22 -11 -31 -25 -19 -29 -39 -32 -48 -8 -4 11 4 27 24 48 l30 31 -30 29
c-16 16 -30 25 -30 19 -1 -24 -29 -45 -53 -39 l-25 7 38 59 c21 33 42 73 45
89 5 25 12 30 36 30 32 0 36 -12 14 -50 -20 -34 -19 -41 13 -77 l28 -31 33 30
c30 28 34 29 49 14 15 -15 14 -18 -16 -49 l-32 -33 24 -23 24 -23 7 22 c7 22
13 22 75 5 14 -4 110 110 110 131 0 5 -47 56 -105 114 -58 58 -105 109 -105
114 0 9 30 35 42 36 3 0 8 -4 10 -9z m-14 -131 c41 -11 50 -22 33 -48 -7 -11
-18 -10 -65 3 -31 9 -56 19 -56 21 0 16 22 43 33 39 6 -2 31 -9 55 -15z m4753
-80 c98 -94 103 -100 87 -116 -16 -17 -19 -17 -36 -1 -10 9 -23 17 -29 17 -5
0 -31 -23 -57 -51 l-47 -51 27 -29 c23 -24 25 -31 14 -44 -17 -21 -37 -19 -52
5 -7 11 -18 20 -24 20 -6 0 -48 -39 -94 -86 l-82 -86 -21 21 -22 21 88 88 88
88 -25 23 -24 22 -48 -34 c-61 -42 -103 -57 -165 -57 -36 0 -49 4 -49 14 0 8
-2 21 -6 29 -4 11 4 13 45 9 52 -5 109 16 160 58 l24 21 -23 24 c-22 24 -23
27 -7 42 15 16 18 15 42 -7 l25 -24 55 54 55 54 -22 23 c-17 18 -19 25 -8 38
7 8 16 15 20 15 4 0 54 -45 111 -100z m-4660 -37 c31 -6 32 -7 23 -39 -5 -21
-7 -21 -60 -5 -36 11 -54 21 -54 32 0 23 12 31 38 24 14 -3 37 -9 53 -12z
m-537 -301 c26 -23 307 -220 359 -251 41 -25 42 -28 22 -55 -12 -16 -17 -17
-30 -6 -21 17 -22 16 -129 -139 -82 -119 -98 -151 -76 -151 14 0 12 -11 -4
-33 -13 -16 -30 -6 -222 129 -115 80 -208 149 -207 153 2 3 53 78 115 165 62
87 119 170 126 182 15 29 20 29 46 6z m5500 -95 l49 -70 18 24 c17 23 19 23
36 6 17 -17 17 -19 0 -49 l-18 -32 50 -72 c28 -40 51 -77 51 -83 0 -5 -8 -12
-19 -16 -10 -3 -26 -14 -36 -25 -24 -26 -40 -25 -52 3 -9 18 -7 25 14 42 l24
20 -98 142 c-54 78 -102 142 -107 143 -5 0 -18 -8 -29 -17 -18 -17 -19 -17
-33 2 -20 27 -19 31 29 64 l42 30 15 -22 c8 -11 37 -52 64 -90z m-88 -46 c38
-10 40 -13 36 -41 -4 -29 -5 -29 -36 -16 -129 54 -136 59 -136 81 0 34 10 36
54 10 22 -13 59 -28 82 -34z m-156 -8 c0 -5 18 -32 39 -61 l38 -52 35 24 36
24 12 -26 c10 -23 9 -28 -5 -37 -49 -29 -49 -28 -4 -84 24 -31 38 -56 32 -59
-110 -73 -143 -96 -143 -102 0 -4 10 -19 21 -34 17 -22 27 -26 50 -21 27 6 29
5 29 -24 0 -24 -5 -32 -24 -37 -14 -3 -33 -4 -42 -2 -22 4 -94 104 -94 129 0
11 27 37 65 64 36 26 65 50 65 53 0 4 -11 20 -23 36 -24 29 -24 29 -70 17 -60
-17 -99 -9 -175 36 -55 33 -61 39 -55 62 10 42 14 44 42 18 48 -45 94 -67 142
-67 25 0 49 3 52 7 4 3 -8 25 -26 47 -47 58 -50 65 -37 81 13 16 40 20 40 8z
m285 -220 l11 -93 -28 0 c-27 0 -28 2 -28 53 -1 28 -5 71 -9 95 -8 42 -8 43
18 40 25 -3 26 -6 36 -95z m327 -286 c15 -23 40 -55 56 -70 27 -26 28 -31 19
-65 -8 -31 -6 -44 12 -80 12 -24 38 -61 58 -83 35 -39 36 -41 21 -71 l-15 -32
-52 82 c-29 45 -55 82 -57 82 -2 0 -20 -8 -41 -17 -21 -10 -39 -18 -40 -18 -2
-1 15 -44 37 -95 30 -71 37 -96 28 -102 -23 -14 -35 -8 -48 22 -7 17 -19 30
-27 30 -7 0 -70 -23 -139 -52 -103 -42 -127 -49 -135 -37 -5 8 -9 19 -9 25 0
7 60 36 133 65 72 29 134 54 136 55 8 7 -22 64 -34 64 -6 0 -38 -9 -70 -20
-65 -22 -152 -25 -205 -7 -32 11 -35 15 -32 47 2 19 5 36 7 38 1 2 20 -8 40
-23 64 -43 121 -34 314 45 72 30 100 47 97 57 -15 38 -89 133 -104 133 -43 -1
-47 -15 -19 -80 32 -72 33 -80 10 -80 -10 0 -49 -14 -88 -30 -38 -17 -71 -30
-72 -30 -2 0 -3 9 -3 20 0 11 -10 39 -22 64 l-21 44 -109 -5 -109 -6 18 30
c16 30 19 31 74 26 63 -6 124 11 269 77 47 21 87 38 90 39 3 0 17 -18 32 -42z
m-6156 -20 c38 -19 94 -44 126 -57 53 -22 56 -24 46 -46 -7 -14 -20 -24 -32
-24 -16 0 -27 -14 -44 -53 -12 -28 -22 -55 -22 -58 0 -4 41 -24 90 -45 79 -33
89 -41 84 -59 -3 -11 -9 -23 -13 -28 -4 -4 -46 11 -93 33 -47 22 -88 40 -91
40 -3 0 -17 -26 -32 -57 -24 -54 -25 -58 -9 -70 14 -10 15 -17 6 -37 l-11 -25
-123 56 c-68 30 -124 56 -126 58 -1 1 13 37 33 80 19 43 35 83 35 89 0 7 -22
20 -50 30 -27 10 -50 20 -50 23 0 4 20 44 25 51 1 1 24 -8 51 -22 27 -13 51
-23 54 -21 3 2 21 42 40 89 19 47 35 86 36 86 0 0 32 -15 70 -33z m-94 -1117
c94 0 98 -1 98 -22 0 -21 -2 -21 -127 -15 -71 4 -156 7 -190 7 -58 0 -63 2
-63 21 0 21 3 22 92 15 50 -3 135 -6 190 -6z m90 -85 c1 -5 -49 -30 -112 -55
l-113 -45 116 -3 c89 -2 117 -6 117 -16 0 -15 -125 -26 -288 -26 -71 0 -93 3
-90 13 3 6 56 33 119 60 l114 47 -120 -2 c-106 -3 -120 -1 -123 14 -3 15 9 18
105 21 178 5 273 3 275 -8z m6156 -23 c6 -1 12 -9 12 -17 0 -10 -11 -15 -35
-15 -32 0 -35 -2 -35 -30 0 -29 1 -30 48 -30 39 0 57 7 111 45 60 42 69 45
127 45 41 0 64 -4 67 -13 6 -16 0 -105 -9 -118 -3 -5 -24 -8 -47 -5 -23 3 -48
5 -54 5 -7 1 -13 8 -13 16 0 11 12 15 45 15 25 0 46 5 46 10 6 44 4 45 -43 48
-42 3 -55 -2 -114 -43 -64 -44 -70 -46 -128 -43 l-61 3 -3 53 c-4 74 6 83 86
74z m-6154 -199 c12 -73 6 -83 -49 -83 -39 0 -46 3 -43 18 2 11 14 18 36 20
29 3 33 6 30 30 -3 25 -6 27 -47 25 -29 -1 -53 -10 -75 -28 -96 -78 -94 -77
-160 -82 l-63 -6 -8 58 c-3 31 -3 61 2 65 4 4 32 11 61 15 48 6 52 5 52 -14 0
-17 -6 -21 -32 -21 -42 0 -61 -12 -56 -36 2 -15 13 -20 48 -22 42 -3 50 1 109
52 50 44 72 56 105 59 79 7 80 7 90 -50z m6092 1 l0 -39 67 -3 66 -3 7 36 c9
50 36 48 32 -2 l-3 -38 78 -3 77 -3 0 36 c0 24 4 35 15 35 11 0 15 -11 15 -42
0 -75 5 -73 -201 -60 -101 7 -185 14 -186 16 -2 2 -1 29 3 60 8 65 29 72 30
10z m63 -120 c2 -2 1 -10 -2 -17 -4 -10 -15 -13 -32 -9 -30 5 -45 -9 -45 -45
0 -15 7 -24 23 -28 34 -7 289 -36 292 -33 1 2 5 17 8 35 7 35 -4 43 -54 43
-23 0 -29 4 -29 21 0 19 4 20 53 14 56 -8 70 -19 62 -50 -2 -11 -5 -33 -5 -50
-1 -57 0 -57 -195 -32 l-180 22 -3 46 c-2 25 2 58 8 73 10 26 13 27 53 21 23
-4 44 -9 46 -11z m-6141 -82 c2 -60 0 -72 -13 -72 -10 0 -15 9 -15 26 l0 27
-82 -6 c-287 -21 -268 -21 -268 0 0 19 9 21 128 27 70 4 148 10 175 13 44 5
47 7 47 35 0 19 4 28 13 26 8 -3 13 -30 15 -76z m6235 -113 c92 -17 167 -36
167 -40 0 -10 -53 -24 -152 -40 -43 -6 -78 -15 -78 -18 0 -4 45 -15 101 -25
65 -12 102 -23 106 -32 11 -30 24 -31 -272 28 -55 10 -102 21 -104 24 -12 11
23 22 122 39 59 10 104 21 100 25 -4 4 -52 16 -105 25 -61 11 -98 22 -98 30 0
17 11 26 29 21 9 -2 91 -19 184 -37z m-6223 -3 c0 -14 -39 -21 -250 -46 -112
-13 -130 -13 -130 4 0 16 24 21 188 41 149 18 192 18 192 1z m5 -68 c29 -130
29 -128 10 -128 -8 0 -17 11 -21 25 -7 30 -7 30 -134 5 -162 -31 -220 -36
-220 -17 0 17 5 18 150 42 186 32 190 33 190 66 0 34 17 39 25 7z m6000 -117
c-6 -39 -6 -40 32 -50 21 -5 51 -11 68 -13 26 -3 30 1 35 27 3 16 12 31 20 33
12 2 15 -6 12 -36 l-4 -38 65 -12 c87 -16 87 -16 87 18 0 18 6 33 15 37 24 9
26 0 13 -56 -13 -58 -10 -57 -117 -36 -42 8 -119 23 -171 33 -52 11 -95 23
-95 28 3 51 19 104 32 104 12 0 13 -8 8 -39z m-5975 -50 c0 -18 -25 -26 -277
-83 -47 -10 -53 -14 -53 -37 0 -51 6 -51 180 -10 91 21 168 39 173 39 4 0 7
-9 7 -19 0 -16 -14 -22 -77 -36 -43 -9 -123 -28 -178 -42 -92 -23 -100 -23
-112 -8 -14 21 -36 115 -28 124 6 6 326 88 353 90 6 0 12 -7 12 -18z m6117
-103 c142 -35 173 -46 173 -60 0 -10 -5 -18 -11 -18 -9 0 -298 73 -341 86 -20
6 -25 34 -5 34 6 0 90 -19 184 -42z m-125 -44 c5 -3 8 -12 8 -21 0 -12 -7 -14
-34 -9 -37 7 -40 5 -50 -35 -5 -24 -2 -28 32 -37 33 -9 191 -57 248 -76 16 -5
23 -2 27 11 2 10 8 25 12 34 5 13 -2 20 -32 29 -47 15 -54 22 -44 39 7 11 17
11 60 -4 28 -9 51 -22 51 -29 0 -13 -30 -119 -35 -124 -2 -2 -83 20 -179 49
-197 59 -190 53 -160 143 16 47 17 48 53 41 20 -4 39 -9 43 -11z m-5937 -61
c9 -32 18 -66 21 -75 4 -12 0 -18 -10 -18 -9 0 -18 11 -22 25 -3 14 -8 25 -11
25 -2 0 -75 -20 -161 -45 -174 -50 -182 -51 -182 -30 0 14 58 35 243 86 86 23
88 25 83 50 -5 26 0 39 15 39 4 0 15 -26 24 -57z m5859 -98 c48 -20 50 -48 2
-40 -28 6 -36 3 -45 -13 -15 -28 -16 -27 32 -45 40 -16 45 -16 119 7 l77 24
53 -20 c29 -11 57 -23 61 -27 8 -8 -17 -84 -35 -107 -14 -19 -108 15 -108 38
0 22 10 22 55 4 32 -14 36 -13 45 4 16 30 12 36 -32 53 -41 16 -47 15 -106 -3
-77 -24 -95 -25 -155 -4 -32 11 -47 21 -47 33 0 32 32 111 45 111 1 0 19 -7
39 -15z m-5811 -62 c21 -59 21 -63 2 -63 -9 0 -18 12 -21 30 -7 35 -17 36 -91
13 -44 -14 -53 -20 -49 -35 3 -10 9 -27 12 -38 10 -33 -23 -24 -35 10 -5 17
-13 30 -17 30 -3 0 -35 -10 -71 -22 -69 -24 -67 -21 -51 -87 2 -8 -2 -15 -9
-18 -13 -5 -49 94 -38 105 7 8 324 120 341 121 5 1 18 -20 27 -46z m5640 -299
c3 -4 0 -19 -8 -35 -8 -15 -15 -30 -15 -33 0 -8 97 -56 113 -56 8 0 20 14 27
30 7 17 16 30 21 30 17 0 19 -21 4 -50 l-15 -30 80 -40 c77 -39 91 -52 70 -65
-13 -8 -340 150 -340 165 0 17 39 90 49 90 4 0 10 -3 14 -6z m-5503 -64 c16
-33 30 -65 30 -72 0 -13 -303 -169 -327 -168 -14 0 -63 97 -63 124 0 12 47 40
163 96 89 44 163 80 164 80 2 0 16 -27 33 -60z m5585 -146 c86 -48 155 -93
155 -101 0 -22 -50 -113 -65 -119 -12 -5 -293 141 -318 166 -5 4 -6 17 -3 27
7 23 63 113 70 113 3 0 75 -39 161 -86z m-5505 -4 c34 -67 20 -101 -15 -35
l-19 34 -56 -31 c-30 -17 -57 -33 -59 -35 -3 -2 3 -19 12 -37 22 -48 -3 -58
-28 -12 l-18 33 -80 -45 c-63 -35 -81 -42 -88 -31 -11 19 0 28 101 82 47 25
112 61 145 80 33 19 66 36 72 36 7 1 22 -17 33 -39z m5216 -352 c32 -46 80
-98 115 -125 55 -43 70 -65 51 -77 -4 -2 -36 17 -72 43 -40 29 -105 63 -167
87 -94 36 -118 53 -94 68 5 3 33 -5 62 -18 107 -47 108 -46 55 29 -27 39 -45
74 -41 82 8 22 25 5 91 -89z m-5006 17 c22 -30 40 -59 40 -65 0 -5 5 -10 10
-10 25 0 5 -31 -50 -77 l-60 -51 21 -26 c11 -14 25 -26 31 -26 5 0 36 23 68
51 52 45 80 55 80 29 0 -4 -43 -46 -96 -92 -53 -45 -117 -101 -141 -122 -39
-34 -46 -37 -59 -24 -12 12 -5 22 56 73 l71 58 -27 28 -27 28 -49 -42 c-70
-60 -86 -70 -98 -62 -5 3 -10 10 -10 14 0 4 49 48 108 99 59 50 118 102 130
115 22 24 22 24 4 47 l-18 23 -135 -96 c-74 -53 -142 -97 -151 -97 -30 0 -20
23 19 50 99 66 234 163 239 172 4 5 1 15 -5 21 -14 14 -14 37 -1 37 5 0 28
-25 50 -55z m4961 -186 c76 -67 139 -125 139 -129 0 -28 -30 -14 -103 48 -45
39 -83 69 -85 67 -2 -1 18 -35 43 -75 26 -39 45 -73 42 -76 -2 -2 -39 12 -82
31 -43 20 -79 34 -81 32 -2 -1 33 -33 76 -70 44 -38 80 -72 80 -77 0 -21 -22
-20 -49 2 -109 88 -246 215 -246 228 0 19 13 17 113 -26 46 -20 86 -33 89 -30
3 3 -18 41 -46 85 -50 78 -62 111 -40 111 6 0 73 -54 150 -121z m-4758 -61
c26 -30 34 -45 26 -53 -7 -7 -18 -2 -34 18 -13 15 -28 27 -32 27 -4 -1 -28
-21 -53 -45 l-44 -44 23 -25 c15 -16 21 -31 17 -42 -6 -15 -10 -14 -36 11
l-30 29 -50 -49 c-28 -27 -50 -52 -50 -55 0 -4 9 -16 20 -28 22 -23 26 -42 10
-42 -14 0 -80 61 -80 74 0 10 260 265 271 266 3 0 22 -19 42 -42z m4477 0 c0
-6 -10 -22 -22 -35 l-22 -23 49 -50 49 -50 26 25 c14 14 29 25 33 25 14 0 6
-24 -15 -47 l-23 -24 54 -50 c29 -27 56 -49 59 -49 4 0 16 12 28 28 18 22 25
25 35 14 11 -10 6 -20 -26 -52 -25 -26 -43 -37 -52 -32 -7 5 -70 64 -138 132
l-125 124 37 38 c38 39 53 47 53 26z m-4367 -112 c26 -23 47 -49 47 -57 0 -16
-215 -250 -242 -263 -16 -8 -29 0 -70 42 l-52 51 100 106 c54 59 110 120 124
136 13 16 29 29 35 29 5 -1 31 -20 58 -44z m4380 -110 c125 -133 131 -153 70
-205 -20 -17 -39 -31 -43 -31 -4 0 -31 26 -60 58 -29 31 -87 93 -128 136 l-74
80 43 38 c24 20 53 38 64 38 13 0 58 -40 128 -114z m-4250 -17 c26 -22 47 -48
47 -57 0 -9 -25 -44 -54 -77 -49 -54 -56 -59 -75 -48 -23 15 -20 19 -61 -79
-17 -43 -36 -78 -40 -78 -21 0 -17 24 22 118 l42 102 24 -16 c22 -15 25 -14
62 28 22 24 39 48 40 55 0 11 -37 43 -51 43 -5 0 -103 -114 -188 -218 -18 -23
-38 -42 -43 -42 -19 0 -19 30 2 52 12 13 65 76 118 140 53 65 99 118 102 118
3 0 26 -18 53 -41z m4108 -101 c56 -68 109 -131 118 -141 11 -14 12 -20 2 -30
-10 -9 -23 1 -66 48 l-53 60 -31 -29 -31 -29 45 -53 c44 -51 58 -89 31 -82
-18 4 -236 263 -236 280 0 15 89 97 106 98 7 0 58 -55 115 -122z m-3983 5 c20
-15 39 -28 41 -29 1 -2 0 -8 -4 -14 -5 -7 -18 -4 -42 10 -20 11 -36 20 -37 18
-1 -2 -19 -26 -39 -55 l-37 -51 32 -26 c27 -20 29 -26 16 -31 -9 -4 -28 1 -43
11 -14 9 -27 15 -29 13 -1 -2 -21 -29 -44 -61 l-41 -56 31 -24 c19 -15 29 -29
24 -36 -9 -16 -99 46 -92 64 9 24 209 294 218 294 5 0 26 -12 46 -27z m3750
-33 c12 -16 22 -34 22 -39 0 -22 -21 -20 -42 4 l-23 25 -27 -22 -27 -23 90
-120 c50 -66 94 -124 98 -128 5 -5 20 2 35 15 l27 23 -25 34 c-25 34 -26 51
-2 51 14 0 66 -69 66 -87 0 -10 -92 -83 -104 -83 -13 0 -225 291 -220 302 6
16 85 77 100 77 5 1 20 -12 32 -29z m-3619 -68 c35 -22 50 -37 43 -44 -7 -7
-17 -6 -32 2 -12 6 -25 9 -28 5 -4 -4 -47 -68 -97 -143 -82 -124 -111 -155
-109 -112 0 8 40 75 88 149 l88 134 -22 17 c-23 17 -20 47 3 33 7 -4 36 -22
66 -41z m3542 -130 c129 -191 122 -177 105 -191 -11 -9 -22 1 -57 54 -23 36
-45 65 -47 65 -10 0 -62 -43 -62 -51 0 -6 18 -36 40 -68 38 -57 41 -71 14 -71
-15 0 -204 279 -204 301 0 16 94 88 115 88 6 1 49 -57 96 -127z m-3447 70 c4
-7 -161 -303 -181 -323 -4 -4 -14 -5 -21 0 -10 6 10 48 79 170 85 146 108 176
123 153z m126 -73 c27 -17 50 -33 50 -36 0 -3 -9 -21 -21 -39 -23 -38 -56 -48
-45 -14 3 11 9 28 12 38 4 13 -2 22 -22 31 -25 11 -30 10 -42 -6 -24 -33 -142
-242 -142 -252 0 -6 13 -17 29 -26 27 -14 30 -13 36 3 11 33 39 62 53 53 11
-7 11 -14 -3 -42 -10 -19 -24 -42 -32 -51 -14 -16 -18 -16 -47 -1 -17 8 -43
24 -59 35 l-28 20 29 51 c94 169 155 267 168 267 7 0 36 -14 64 -31z m134 -75
c30 -14 58 -30 61 -35 4 -5 -16 -58 -43 -117 -26 -59 -59 -133 -73 -164 -16
-39 -30 -58 -41 -58 -24 0 -23 7 12 85 17 37 30 68 30 69 0 5 -80 29 -83 25
-1 -2 -16 -32 -32 -66 -26 -57 -55 -83 -55 -50 0 24 144 337 156 337 6 0 37
-12 68 -26z m2756 -8 c0 -7 -13 -19 -30 -26 -16 -7 -30 -16 -30 -21 0 -5 11
-34 25 -65 20 -46 28 -55 42 -49 61 26 88 9 33 -20 -16 -9 -30 -17 -30 -19 0
-13 62 -136 68 -136 4 0 12 4 18 9 18 17 54 23 54 9 0 -17 -90 -62 -101 -51
-9 10 -146 302 -151 322 -2 9 15 24 42 37 54 27 60 28 60 10z m-2630 -56 c0
-7 -67 -189 -115 -311 -5 -12 4 -21 35 -33 23 -9 40 -21 38 -27 -4 -13 -12
-13 -70 7 -27 9 -48 21 -48 27 0 7 18 59 41 117 22 58 49 129 59 158 11 29 22
57 25 62 8 13 35 13 35 0z m2514 -40 c19 -49 19 -47 0 -54 -11 -4 -19 4 -30
29 -13 32 -16 34 -39 23 -30 -14 -30 -18 -6 -66 14 -26 40 -49 85 -77 60 -35
68 -45 87 -94 11 -29 18 -58 16 -64 -2 -8 -92 -47 -109 -47 -4 0 -14 15 -22
33 -26 63 -27 74 -10 81 11 4 20 -4 32 -35 14 -36 18 -40 41 -34 37 9 37 11
14 58 -16 34 -36 53 -90 85 -60 37 -70 47 -86 90 -9 28 -17 55 -17 61 0 13 74
49 101 50 11 1 23 -14 33 -39z m-163 -35 c0 -5 -13 -14 -30 -19 -36 -10 -37
-20 -12 -91 14 -39 22 -49 37 -47 44 8 57 6 61 -5 3 -7 0 -13 -6 -13 -5 0 -21
-4 -35 -10 l-25 -9 23 -68 c24 -70 27 -72 81 -59 18 5 25 2 25 -8 0 -14 -96
-53 -106 -43 -7 7 -124 350 -121 354 2 1 21 9 43 17 43 16 65 16 65 1z m-101
-152 c18 -65 40 -146 50 -180 12 -45 14 -63 6 -63 -7 0 -43 41 -80 90 -38 50
-70 89 -73 87 -3 -4 36 -151 52 -195 4 -12 -21 -29 -30 -21 -4 5 -105 351
-105 361 0 24 27 -2 91 -87 39 -52 73 -95 74 -95 4 0 -10 52 -36 139 -23 78
-23 81 -1 81 15 0 25 -22 52 -117z m-1832 82 c61 -19 62 -23 31 -134 -26 -96
-33 -104 -83 -90 -21 6 -43 8 -50 6 -7 -3 -18 -30 -26 -60 -17 -72 -25 -86
-41 -70 -10 10 -3 49 36 185 55 197 52 188 68 183 7 -2 36 -11 65 -20z m1631
-72 c7 -32 26 -113 42 -179 16 -67 29 -124 29 -128 0 -3 -8 -6 -18 -6 -15 0
-24 26 -55 163 -21 89 -40 172 -43 185 -5 17 -2 22 13 22 16 0 22 -11 32 -57z
m-1515 39 c2 -4 -4 -41 -14 -82 -18 -80 -18 -82 31 -93 25 -6 26 -4 44 73 15
64 22 80 37 80 10 0 18 -1 18 -2 0 -2 -18 -82 -40 -178 -22 -96 -40 -178 -40
-182 0 -11 -40 -10 -40 0 0 5 9 44 20 87 11 44 17 82 13 86 -5 4 -22 10 -39
13 l-31 7 -18 -86 c-19 -90 -23 -98 -44 -86 -9 6 -3 47 28 184 23 96 41 178
41 181 0 9 28 7 34 -2z m1470 -182 c15 -85 30 -163 32 -172 4 -13 0 -18 -15
-18 -13 0 -21 9 -25 28 -29 150 -26 142 -54 142 -48 0 -50 -8 -32 -102 16 -84
16 -88 -1 -88 -22 0 -22 2 -54 185 -14 83 -28 158 -31 168 -4 12 0 17 15 17
16 0 22 -10 31 -57 21 -113 17 -105 53 -98 18 4 34 9 36 11 2 2 -2 38 -9 80
-10 63 -10 78 1 85 19 11 22 0 53 -181z m-1299 89 c14 -120 17 -122 55 -36 24
55 39 77 52 77 10 0 18 -4 18 -8 0 -4 -23 -54 -50 -111 -31 -62 -56 -130 -64
-172 -14 -76 -21 -88 -37 -72 -8 8 -7 32 1 86 9 56 10 95 1 157 -15 111 -14
140 3 140 10 0 16 -19 21 -61z m1089 39 c3 -13 6 -35 6 -50 0 -39 -29 -37 -36
2 -6 26 -11 30 -40 30 -21 0 -34 -5 -34 -12 0 -7 7 -79 17 -160 l17 -148 37 0
38 0 -6 50 c-5 42 -3 50 10 50 16 0 20 -9 31 -78 5 -28 2 -34 -20 -42 -33 -13
-124 -13 -124 0 0 6 -9 87 -21 181 -11 94 -19 173 -16 175 5 5 85 20 118 23 9
0 19 -9 23 -21z m-836 -14 c15 -3 22 -12 22 -27 0 -40 -12 -67 -29 -67 -13 0
-16 7 -13 35 4 30 1 35 -17 35 -12 0 -24 1 -28 3 -5 1 -11 -18 -14 -43 -6 -40
-2 -52 34 -113 37 -64 39 -71 33 -124 -4 -30 -9 -60 -12 -64 -6 -10 -49 -12
-93 -3 -29 6 -31 9 -31 49 0 53 8 75 27 75 11 0 14 -11 12 -47 -3 -47 -3 -48
26 -48 28 0 30 3 33 43 3 34 -4 56 -32 108 -38 68 -48 143 -25 185 10 20 24
20 107 3z m89 -51 c-4 -27 -9 -102 -12 -168 -7 -145 -11 -165 -30 -165 -18 0
-19 16 -3 223 11 145 13 157 31 157 18 0 19 -5 14 -47z m178 -13 c0 -35 -4
-45 -17 -48 -15 -3 -18 4 -18 32 0 34 -2 36 -34 36 l-33 0 -6 -67 c-4 -38 -7
-110 -7 -160 l0 -93 35 0 c21 0 36 5 36 13 1 6 2 25 3 42 1 20 8 31 19 33 16
3 18 -3 15 -55 l-3 -58 -59 -3 c-32 -2 -63 1 -68 6 -10 10 -11 348 -2 364 3 5
36 8 72 6 l67 -3 0 -45z m163 -2 c3 -43 1 -48 -17 -48 -17 0 -21 6 -21 35 0
32 -2 35 -30 35 -29 0 -30 -2 -30 -44 0 -37 8 -53 51 -109 49 -64 50 -66 47
-129 l-3 -63 -62 -3 -63 -3 0 61 c0 46 3 60 14 60 10 0 16 -14 18 -42 3 -40 5
-43 36 -46 25 -3 32 0 32 15 -1 47 -21 94 -63 150 -43 55 -47 66 -47 115 0 30
3 58 7 62 4 4 34 6 68 4 l60 -3 3 -47z m182 -313 c0 -20 -8 -50 -17 -68 l-18
-32 -3 33 c-2 17 -7 32 -13 32 -5 0 -9 16 -9 35 0 32 2 35 30 35 28 0 30 -3
30 -35z"/>
<path d="M3940 7678 c1 -43 13 -58 47 -58 32 0 35 2 29 23 -3 12 -6 28 -6 35
0 7 -14 12 -35 12 -21 0 -35 -5 -35 -12z"/>
<path d="M3834 7666 c-3 -8 -4 -25 -2 -38 2 -19 8 -22 33 -20 38 4 38 5 30 41
-5 24 -12 31 -31 31 -14 0 -27 -6 -30 -14z"/>
<path d="M3968 7573 c-13 -3 -16 -11 -11 -36 7 -40 4 -38 41 -31 32 7 39 23
26 58 -6 16 -22 18 -56 9z"/>
<path d="M3868 7562 c-25 -3 -28 -8 -28 -38 0 -27 4 -34 19 -34 34 0 51 11 51
34 0 31 -12 41 -42 38z"/>
<path d="M5948 7210 c-16 -29 -16 -30 5 -45 29 -20 34 -19 54 11 16 25 16 27
-8 45 -31 24 -31 24 -51 -11z"/>
<path d="M6045 7148 c-15 -22 -14 -24 6 -40 29 -24 43 -22 60 8 12 23 12 27
-6 40 -27 20 -41 18 -60 -8z"/>
<path d="M5892 7115 c-17 -36 -15 -40 13 -53 22 -10 27 -9 42 15 16 25 16 26
-6 44 -30 25 -36 24 -49 -6z"/>
<path d="M5991 7054 c-10 -22 -9 -30 5 -45 23 -26 38 -24 55 7 12 24 12 28
-10 45 -30 25 -35 24 -50 -7z"/>
<path d="M3907 6985 c-752 -82 -1417 -465 -1865 -1073 -523 -709 -656 -1647
-351 -2484 317 -873 1107 -1537 2019 -1697 709 -125 1422 33 2005 443 194 136
442 376 581 559 502 667 663 1480 454 2297 -83 324 -274 701 -494 975 -332
412 -770 712 -1276 873 -122 39 -306 80 -440 98 -155 21 -479 26 -633 9z m692
-54 c663 -113 1214 -436 1638 -961 273 -339 455 -753 535 -1215 20 -114 22
-165 22 -415 1 -302 -8 -380 -65 -620 -139 -578 -492 -1111 -979 -1477 -625
-468 -1444 -630 -2215 -437 -858 216 -1564 876 -1838 1719 -90 274 -118 446
-124 743 -8 375 27 614 137 937 52 152 188 429 277 565 438 665 1144 1098
1927 1180 147 16 546 4 685 -19z"/>
<path d="M4961 6462 c-77 -44 -300 -107 -317 -89 -3 2 19 16 48 31 29 14 64
35 78 47 l25 21 -25 -7 c-14 -4 -110 -9 -215 -12 -208 -4 -271 -15 -366 -64
-105 -53 -174 -130 -203 -229 -33 -112 -13 -215 58 -295 80 -92 188 -131 339
-123 72 4 92 9 126 31 46 30 81 90 81 138 0 63 -56 119 -121 119 -31 0 -31 -1
-15 -19 37 -41 -15 -111 -83 -111 -20 0 -51 9 -68 20 -27 16 -33 26 -33 56 0
87 43 104 257 103 141 -1 165 1 218 21 79 30 150 80 205 146 41 50 84 124 75
132 -2 2 -27 -15 -55 -37 -65 -51 -100 -56 -49 -7 30 30 97 143 87 150 -2 1
-23 -9 -47 -22z"/>
<path d="M4730 5643 c-25 -2 -119 -13 -210 -24 -154 -18 -248 -30 -625 -79
-82 -11 -190 -24 -240 -30 -110 -14 -149 -25 -198 -56 -22 -15 -120 -128 -242
-281 -112 -142 -203 -258 -202 -259 1 -1 88 15 192 37 581 120 687 141 692
135 3 -3 -21 -113 -55 -243 -33 -131 -97 -382 -142 -558 -45 -176 -103 -405
-130 -510 -100 -390 -300 -1182 -300 -1188 0 -4 164 -7 364 -7 l364 0 7 33 c4
17 17 79 30 137 65 285 181 790 229 1000 30 129 111 483 181 785 69 303 134
584 144 624 22 94 20 94 251 95 155 1 183 -2 246 -21 163 -51 238 -160 214
-310 -39 -241 -299 -509 -688 -710 l-127 -66 -53 -299 c-29 -165 -51 -302 -49
-304 7 -7 176 65 299 127 482 246 863 639 1026 1059 69 179 85 385 39 518 -95
270 -378 406 -837 400 -74 -1 -155 -3 -180 -5z"/>
<path d="M5894 5250 c16 -173 17 -223 3 -340 -42 -343 -196 -637 -492 -936
-235 -238 -551 -456 -944 -654 l-136 -68 -44 -248 c-24 -137 -50 -280 -57
-317 -23 -114 -29 -107 86 -107 l99 0 5 33 c3 17 17 109 31 202 30 204 44 291
51 327 4 22 31 41 157 113 811 463 1267 992 1316 1525 14 156 -16 388 -65 493
-15 32 -15 31 -10 -23z"/>
<path d="M6121 4904 c0 -11 3 -14 6 -6 3 7 2 16 -1 19 -3 4 -6 -2 -5 -13z"/>
<path d="M6128 4851 c-5 -18 -8 -55 -8 -81 0 -190 -107 -482 -256 -701 -237
-348 -666 -699 -1160 -947 l-61 -31 -7 -68 c-4 -37 -14 -138 -21 -223 -8 -85
-17 -170 -20 -187 l-6 -33 64 0 64 0 7 173 c4 94 9 195 12 222 l6 51 92 48
c346 184 605 373 821 597 330 344 491 705 483 1085 -2 87 -5 118 -10 95z"/>
<path d="M2845 4646 c-21 -31 -33 -76 -46 -161 -41 -283 169 -524 540 -620 97
-25 92 -29 130 95 19 61 31 113 28 116 -4 4 -43 12 -87 20 -168 27 -319 93
-412 181 -100 96 -142 197 -136 323 2 39 2 70 1 70 -2 0 -10 -11 -18 -24z"/>
<path d="M2724 4444 c-25 -82 -25 -231 0 -304 54 -159 199 -307 401 -408 48
-24 226 -92 240 -92 5 0 38 101 34 104 -2 2 -45 15 -95 29 -282 80 -479 234
-544 423 -24 69 -33 175 -21 244 5 30 7 57 6 59 -2 2 -12 -23 -21 -55z"/>
<path d="M2646 4360 c-39 -132 -27 -260 39 -399 92 -192 299 -367 532 -447
l98 -34 12 28 c22 49 17 56 -50 75 -137 40 -322 144 -419 235 -151 141 -226
335 -200 514 6 40 9 74 7 76 -2 2 -11 -20 -19 -48z"/>
<path d="M3331 2416 c-19 -19 -56 -44 -82 -56 -47 -20 -49 -22 -49 -60 0 -47
6 -49 77 -15 29 13 55 20 57 16 3 -4 5 -57 5 -117 0 -60 0 -115 0 -121 1 -9
20 -13 61 -13 l60 0 0 200 0 200 -48 0 c-42 0 -53 -5 -81 -34z"/>
<path d="M3676 2440 c-34 -11 -63 -36 -82 -72 -54 -105 67 -221 181 -174 21 9
40 14 42 12 3 -3 2 -18 -2 -35 -13 -60 -58 -79 -94 -40 -17 19 -26 21 -76 14
l-55 -6 16 -28 c26 -45 64 -61 138 -61 115 0 175 44 195 142 11 54 3 138 -18
176 -36 67 -149 100 -245 72z m128 -82 c33 -46 5 -108 -48 -108 -48 0 -73 60
-46 111 15 28 74 26 94 -3z"/>
<path d="M4474 2430 c-66 -33 -81 -88 -40 -137 l25 -29 -30 -28 c-51 -48 -35
-137 32 -172 33 -17 174 -19 216 -3 68 26 98 90 69 147 -9 17 -25 36 -37 42
-20 11 -20 12 5 37 28 28 34 70 15 105 -29 55 -177 77 -255 38z m147 -71 c17
-33 -6 -61 -49 -57 -34 3 -37 6 -40 36 -3 26 1 34 19 41 30 11 57 3 70 -20z
m-16 -135 c25 -10 37 -50 23 -79 -24 -54 -108 -35 -108 25 0 47 38 72 85 54z"/>
<path d="M3990 2395 l0 -45 105 0 c58 0 105 -2 105 -5 0 -3 -18 -29 -39 -58
-36 -47 -91 -182 -91 -221 0 -13 12 -16 59 -16 l58 0 13 63 c16 81 54 157 107
215 33 35 43 54 43 79 l0 33 -180 0 -180 0 0 -45z"/>
<path d="M6274 6739 c-47 -48 -47 -49 -29 -69 18 -20 18 -20 67 28 33 33 47
54 43 65 -12 31 -33 25 -81 -24z"/>
<path d="M6550 6671 c-54 -49 -55 -49 -36 -70 11 -12 25 -21 31 -21 12 0 105
93 105 105 0 9 -27 35 -37 35 -4 0 -33 -23 -63 -49z"/>
<path d="M1357 6210 c-53 -76 -97 -143 -97 -148 0 -15 290 -214 304 -209 11 5
181 242 191 268 4 10 -34 43 -122 105 -71 50 -139 98 -153 107 l-26 17 -97
-140z m133 65 c10 -12 6 -22 -19 -57 -17 -23 -31 -45 -31 -49 0 -4 11 -14 24
-23 24 -15 25 -15 47 24 23 41 33 46 59 30 12 -7 9 -16 -17 -52 l-31 -44 41
-26 c41 -26 41 -26 55 -7 17 24 15 27 -23 32 -31 4 -47 33 -26 46 16 10 81 0
81 -12 0 -6 6 -2 14 8 12 16 15 17 33 4 20 -14 18 -18 -58 -124 -44 -60 -82
-118 -85 -127 -6 -21 -13 -22 -37 -4 -17 13 -16 17 18 62 l37 48 -34 28 c-18
15 -36 28 -40 28 -4 0 -17 -15 -29 -32 -12 -18 -24 -34 -25 -36 -1 -2 -12 1
-23 8 l-21 11 25 33 c31 40 31 52 3 67 -18 10 -24 8 -37 -9 -9 -12 -23 -30
-31 -41 -13 -18 -17 -19 -33 -7 -16 13 -12 22 60 125 42 61 80 111 84 111 4 0
12 -7 19 -15z"/>
<path d="M7165 5673 c-22 -9 -41 -17 -43 -18 -4 -3 29 -85 34 -85 2 0 21 8 43
17 l39 17 -15 43 c-8 24 -16 43 -16 42 -1 0 -20 -7 -42 -16z"/>
<path d="M1121 5643 c-39 -78 -38 -81 21 -108 29 -14 58 -25 64 -25 9 0 54 93
54 113 0 6 -104 57 -116 57 -2 0 -12 -17 -23 -37z"/>
<path d="M1036 5448 c-15 -33 -25 -62 -24 -64 11 -11 113 -52 120 -48 10 6 48
93 48 110 0 12 -24 25 -96 54 -20 8 -25 2 -48 -52z"/>
<path d="M1290 2963 c-74 -35 -136 -66 -138 -68 -3 -3 25 -63 33 -73 6 -7 285
133 285 144 0 22 -23 64 -34 63 -6 0 -72 -30 -146 -66z"/>
<path d="M6884 2879 c-8 -17 -12 -35 -7 -39 4 -4 66 -40 137 -80 123 -68 130
-71 144 -54 32 44 33 53 10 67 -61 37 -248 137 -257 137 -6 0 -18 -14 -27 -31z"/>
<path d="M1922 2062 l-111 -119 22 -20 c12 -11 27 -23 33 -26 6 -4 59 44 119
109 l108 115 -30 30 -30 30 -111 -119z"/>
<path d="M6298 2123 c-20 -19 -17 -23 122 -170 l78 -81 21 19 c12 11 21 23 21
27 0 17 -196 222 -212 222 -8 0 -21 -8 -30 -17z"/>
<path d="M6166 2005 c-29 -23 -29 -24 -13 -49 29 -44 79 -96 91 -96 7 0 23 11
36 25 25 27 29 19 -40 103 -19 23 -37 42 -40 42 -3 -1 -18 -11 -34 -25z"/>
<path d="M5872 1789 c-17 -12 -32 -24 -32 -28 0 -10 80 -131 86 -131 12 0 64
42 64 51 0 7 -55 92 -79 121 -4 4 -21 -2 -39 -13z"/>
<path d="M2737 1567 c-15 -34 -27 -67 -27 -73 0 -6 16 -18 35 -27 40 -19 34
-24 79 76 l25 57 -29 15 c-16 8 -35 15 -42 15 -7 0 -25 -29 -41 -63z"/>
<path d="M3297 1358 c-8 -35 -18 -71 -22 -80 -5 -13 0 -20 21 -28 15 -6 33 -9
39 -6 6 2 20 38 32 80 l20 76 -21 6 c-12 3 -28 8 -37 10 -12 3 -20 -10 -32
-58z"/>
</g>
</svg>
